<?xml version="1.0" encoding="UTF-8" standalone="no"?>
<!-- Created with Inkscape (http://www.inkscape.org/) -->

<svg
   xmlns:dc="http://purl.org/dc/elements/1.1/"
   xmlns:cc="http://creativecommons.org/ns#"
   xmlns:rdf="http://www.w3.org/1999/02/22-rdf-syntax-ns#"
   xmlns:svg="http://www.w3.org/2000/svg"
   xmlns="http://www.w3.org/2000/svg"
   xmlns:xlink="http://www.w3.org/1999/xlink"
   xmlns:sodipodi="http://sodipodi.sourceforge.net/DTD/sodipodi-0.dtd"
   xmlns:inkscape="http://www.inkscape.org/namespaces/inkscape"
   width="720.82922"
   height="704.45129"
   id="svg2"
   version="1.1"
   inkscape:version="0.48.1 r9760"
   sodipodi:docname="melia_logo_r1.svg.2011_06_15_11_33_08.1.svg"
   inkscape:export-filename="/home/mike/git/melia/melia_logo_r2-16.png"
   inkscape:export-xdpi="1.9976993"
   inkscape:export-ydpi="1.9976993">
  <defs
     id="defs4">
    <inkscape:perspective
       sodipodi:type="inkscape:persp3d"
       inkscape:vp_x="0 : 526.18109 : 1"
       inkscape:vp_y="0 : 1000 : 0"
       inkscape:vp_z="744.09448 : 526.18109 : 1"
       inkscape:persp3d-origin="372.04724 : 350.78739 : 1"
       id="perspective5457" />
    <linearGradient
       id="linearGradient3755">
      <stop
         style="stop-color:#000058;stop-opacity:0.61832058;"
         offset="0"
         id="stop3757" />
      <stop
         style="stop-color:#000027;stop-opacity:0.67175573;"
         offset="1"
         id="stop3759" />
    </linearGradient>
    <linearGradient
       x1="36.357143"
       y1="6"
       x2="36.357143"
       y2="63.893143"
       id="linearGradient3188"
       xlink:href="#linearGradient3737"
       gradientUnits="userSpaceOnUse" />
    <linearGradient
       id="linearGradient3737">
      <stop
         id="stop3739"
         style="stop-color:#f2f1f0;stop-opacity:1;"
         offset="0" />
      <stop
         id="stop3741"
         style="stop-color:#f2f1f0;stop-opacity:1;"
         offset="1" />
    </linearGradient>
    <linearGradient
       gradientTransform="matrix(7.8292184,0,0,7.6785522,-1106.613,331.78786)"
       y2="63.893143"
       x2="36.357143"
       y1="6"
       x1="36.357143"
       gradientUnits="userSpaceOnUse"
       id="linearGradient6957"
       xlink:href="#linearGradient3737"
       inkscape:collect="always" />
    <linearGradient
       x1="32.251034"
       y1="6.1317081"
       x2="32.251034"
       y2="90.238609"
       id="linearGradient3725"
       xlink:href="#ButtonShadow-0"
       gradientUnits="userSpaceOnUse"
       gradientTransform="matrix(1.0238095,0,0,1.0119048,-1.1428571,-98.071429)" />
    <linearGradient
       x1="45.447727"
       y1="92.539597"
       x2="45.447727"
       y2="7.0165396"
       id="ButtonShadow-0"
       gradientUnits="userSpaceOnUse"
       gradientTransform="matrix(1.0058652,0,0,0.994169,100,0)">
      <stop
         id="stop3750-8"
         style="stop-color:#000000;stop-opacity:1"
         offset="0" />
      <stop
         id="stop3752-5"
         style="stop-color:#000000;stop-opacity:0.58823532"
         offset="1" />
    </linearGradient>
    <linearGradient
       x1="32.251034"
       y1="6.1317081"
       x2="32.251034"
       y2="90.238609"
       id="linearGradient3725-2"
       xlink:href="#ButtonShadow-0-9"
       gradientUnits="userSpaceOnUse"
       gradientTransform="matrix(1.0238095,0,0,1.0119048,1088.2889,-749.40053)" />
    <linearGradient
       x1="45.447727"
       y1="92.539597"
       x2="45.447727"
       y2="7.0165396"
       id="ButtonShadow-0-9"
       gradientUnits="userSpaceOnUse"
       gradientTransform="matrix(1.0058652,0,0,0.994169,100,0)">
      <stop
         id="stop3750-8-1"
         style="stop-color:#000000;stop-opacity:1"
         offset="0" />
      <stop
         id="stop3752-5-6"
         style="stop-color:#000000;stop-opacity:0.58823532"
         offset="1" />
    </linearGradient>
    <linearGradient
       x1="32.251034"
       y1="6.1317081"
       x2="32.251034"
       y2="90.238609"
       id="linearGradient3772"
       xlink:href="#ButtonShadow-0-9"
       gradientUnits="userSpaceOnUse"
       gradientTransform="matrix(1.0238095,0,0,-1.0119048,1088.2889,749.40053)" />
    <linearGradient
       x1="45.447727"
       y1="92.539597"
       x2="45.447727"
       y2="7.0165396"
       id="linearGradient7027"
       gradientUnits="userSpaceOnUse"
       gradientTransform="matrix(1.0058652,0,0,0.994169,100,0)">
      <stop
         id="stop7029"
         style="stop-color:#000000;stop-opacity:1"
         offset="0" />
      <stop
         id="stop7031"
         style="stop-color:#000000;stop-opacity:0.58823532"
         offset="1" />
    </linearGradient>
    <linearGradient
       x1="32.251034"
       y1="6.1317081"
       x2="32.251034"
       y2="90.238609"
       id="linearGradient3780"
       xlink:href="#ButtonShadow-0-9"
       gradientUnits="userSpaceOnUse"
       gradientTransform="matrix(1.0238095,0,0,-1.0119048,1088.2889,749.40053)" />
    <linearGradient
       x1="45.447727"
       y1="92.539597"
       x2="45.447727"
       y2="7.0165396"
       id="linearGradient7034"
       gradientUnits="userSpaceOnUse"
       gradientTransform="matrix(1.0058652,0,0,0.994169,100,0)">
      <stop
         id="stop7036"
         style="stop-color:#000000;stop-opacity:1"
         offset="0" />
      <stop
         id="stop7038"
         style="stop-color:#000000;stop-opacity:0.58823532"
         offset="1" />
    </linearGradient>
    <linearGradient
       x1="32.251034"
       y1="6.1317081"
       x2="32.251034"
       y2="90.238609"
       id="linearGradient3026"
       xlink:href="#ButtonShadow-0-9"
       gradientUnits="userSpaceOnUse"
       gradientTransform="matrix(1.0238095,0,0,1.0119048,-1.1428571,-98.071429)" />
    <linearGradient
       x1="45.447727"
       y1="92.539597"
       x2="45.447727"
       y2="7.0165396"
       id="linearGradient7041"
       gradientUnits="userSpaceOnUse"
       gradientTransform="matrix(1.0058652,0,0,0.994169,100,0)">
      <stop
         id="stop7043"
         style="stop-color:#000000;stop-opacity:1"
         offset="0" />
      <stop
         id="stop7045"
         style="stop-color:#000000;stop-opacity:0.58823532"
         offset="1" />
    </linearGradient>
    <linearGradient
       x1="32.251034"
       y1="6.1317081"
       x2="32.251034"
       y2="90.238609"
       id="linearGradient3026-3"
       xlink:href="#ButtonShadow-0-2"
       gradientUnits="userSpaceOnUse"
       gradientTransform="matrix(1.0238095,0,0,1.0119048,-1.1428571,-98.071429)" />
    <linearGradient
       x1="45.447727"
       y1="92.539597"
       x2="45.447727"
       y2="7.0165396"
       id="ButtonShadow-0-2"
       gradientUnits="userSpaceOnUse"
       gradientTransform="matrix(1.0058652,0,0,0.994169,100,0)">
      <stop
         id="stop3750-8-6"
         style="stop-color:#000000;stop-opacity:1"
         offset="0" />
      <stop
         id="stop3752-5-3"
         style="stop-color:#000000;stop-opacity:0.58823532"
         offset="1" />
    </linearGradient>
    <linearGradient
       x1="32.251034"
       y1="6.1317081"
       x2="32.251034"
       y2="90.238609"
       id="linearGradient3780-1"
       xlink:href="#ButtonShadow-0-2"
       gradientUnits="userSpaceOnUse"
       gradientTransform="matrix(1.0238095,0,0,1.0119048,-1.1428571,-98.071429)" />
    <linearGradient
       x1="45.447727"
       y1="92.539597"
       x2="45.447727"
       y2="7.0165396"
       id="linearGradient7129"
       gradientUnits="userSpaceOnUse"
       gradientTransform="matrix(1.0058652,0,0,0.994169,100,0)">
      <stop
         id="stop7131"
         style="stop-color:#000000;stop-opacity:1"
         offset="0" />
      <stop
         id="stop7133"
         style="stop-color:#000000;stop-opacity:0.58823532"
         offset="1" />
    </linearGradient>
    <linearGradient
       x1="32.251034"
       y1="6.1317081"
       x2="32.251034"
       y2="90.238609"
       id="linearGradient3772-4"
       xlink:href="#ButtonShadow-0-2"
       gradientUnits="userSpaceOnUse"
       gradientTransform="matrix(1.0238095,0,0,1.0119048,-1.1428571,-98.071429)" />
    <linearGradient
       x1="45.447727"
       y1="92.539597"
       x2="45.447727"
       y2="7.0165396"
       id="linearGradient7136"
       gradientUnits="userSpaceOnUse"
       gradientTransform="matrix(1.0058652,0,0,0.994169,100,0)">
      <stop
         id="stop7138"
         style="stop-color:#000000;stop-opacity:1"
         offset="0" />
      <stop
         id="stop7140"
         style="stop-color:#000000;stop-opacity:0.58823532"
         offset="1" />
    </linearGradient>
    <linearGradient
       x1="32.251034"
       y1="6.1317081"
       x2="32.251034"
       y2="90.238609"
       id="linearGradient3725-9"
       xlink:href="#ButtonShadow-0-2"
       gradientUnits="userSpaceOnUse"
       gradientTransform="matrix(1.0238095,0,0,1.0119048,-1.1428571,-98.071429)" />
    <linearGradient
       x1="45.447727"
       y1="92.539597"
       x2="45.447727"
       y2="7.0165396"
       id="linearGradient7143"
       gradientUnits="userSpaceOnUse"
       gradientTransform="matrix(1.0058652,0,0,0.994169,100,0)">
      <stop
         id="stop7145"
         style="stop-color:#000000;stop-opacity:1"
         offset="0" />
      <stop
         id="stop7147"
         style="stop-color:#000000;stop-opacity:0.58823532"
         offset="1" />
    </linearGradient>
    <linearGradient
       x1="32.251034"
       y1="6.1317081"
       x2="32.251034"
       y2="90.238609"
       id="linearGradient3721"
       xlink:href="#ButtonShadow-0-2"
       gradientUnits="userSpaceOnUse"
       gradientTransform="translate(0,-97)" />
    <linearGradient
       x1="45.447727"
       y1="92.539597"
       x2="45.447727"
       y2="7.0165396"
       id="linearGradient7150"
       gradientUnits="userSpaceOnUse"
       gradientTransform="matrix(1.0058652,0,0,0.994169,100,0)">
      <stop
         id="stop7152"
         style="stop-color:#000000;stop-opacity:1"
         offset="0" />
      <stop
         id="stop7154"
         style="stop-color:#000000;stop-opacity:0.58823532"
         offset="1" />
    </linearGradient>
    <linearGradient
       inkscape:collect="always"
       xlink:href="#ButtonShadow-0-2"
       id="linearGradient7263"
       gradientUnits="userSpaceOnUse"
       gradientTransform="matrix(8.0162041,0,0,-7.8280045,-11.72041,1757.5245)"
       x1="32.251034"
       y1="6.1317081"
       x2="32.251034"
       y2="90.238609" />
    <linearGradient
       inkscape:collect="always"
       xlink:href="#ButtonShadow-0-2"
       id="linearGradient7265"
       gradientUnits="userSpaceOnUse"
       gradientTransform="matrix(8.0162041,0,0,-7.8280045,-11.72041,1757.5245)"
       x1="32.251034"
       y1="6.1317081"
       x2="32.251034"
       y2="90.238609" />
    <linearGradient
       inkscape:collect="always"
       xlink:href="#ButtonShadow-0-2"
       id="linearGradient7267"
       gradientUnits="userSpaceOnUse"
       gradientTransform="matrix(8.0162041,0,0,-7.8280045,-11.72041,1757.5245)"
       x1="32.251034"
       y1="6.1317081"
       x2="32.251034"
       y2="90.238609" />
    <linearGradient
       inkscape:collect="always"
       xlink:href="#ButtonShadow-0-2"
       id="linearGradient7269"
       gradientUnits="userSpaceOnUse"
       gradientTransform="matrix(8.0162041,0,0,7.8280045,-11.72041,-1757.5245)"
       x1="32.251034"
       y1="6.1317081"
       x2="32.251034"
       y2="90.238609" />
    <clipPath
       clipPathUnits="userSpaceOnUse"
       id="clipPath4036">
      <path
         style="fill:#92d590;fill-opacity:1"
         d="m 326.85234,-1066.6968 c -6.10549,2.2595 -42.28757,37.508 -59.12603,57.6011 -6.85039,8.1742 -13.93273,15.65006 -15.73873,16.61316 -1.80586,0.9632 -8.96992,7.828 -15.91974,15.2557 -21.68596,23.1764 -28.89497,30.0513 -36.28307,34.60227 -11.36712,7.00172 -32.07539,28.71096 -58.7057,61.54229 -13.56683,16.72637 -31.69351,38.07354 -40.2813,47.43809 -17.370457,18.94182 -39.168925,55.04215 -55.009005,91.1 -10.60354,24.138 -13.95703,33.36677 -27.41744,75.45108 -4.150021,12.97506 -10.8074801,30.86398 -14.7941271,39.7536 -3.98711402,8.88935 -6.60143,18.61552 -5.810203,21.6133 0.791213,2.99777 -3.153084,15.36111 -8.7652739,27.47407 -6.122754,13.2147 -9.386493,24.25823 -8.159796,27.6109 1.124504,3.07323 0.07606,8.9683 -2.329981,13.10015 -6.310504,10.83683 -13.012699,39.3567 -15.354064,65.33768 -2.314835,25.68683 -9.62086,70.68093 -13.369103,82.33363 -1.390318,4.32107 -8.022443,21.63054 -14.739059,38.4652 -12.952349,32.464 -20.968056,65.50476 -20.678426,85.23383 0.189903,12.92985 -12.476423,48.8757 -30.351422,86.13388 -11.61198,24.20389 -17.39042,45.42878 -16.57455,60.88327 0.64605,12.24586 -13.32094,50.666687 -33.69168,92.67928 -21.10748,43.532128 -27.35363,58.902077 -30.04169,73.92307 -6.66164,37.22404 -75.55401,186.10002 -106.92755,231.06943 -30.06757,43.098 -85.32968,101.71329 -101.28115,107.42733 -11.71584,4.19673 -22.48424,17.2919 -19.23304,23.38865 5.21723,9.78371 39.76393,1.24851 74.14996,-18.31974 9.80329,-5.57855 21.70862,-11.23879 26.45691,-12.57832 4.74786,-1.33957 15.3886,-5.21777 23.64593,-8.61825 45.34755,-18.67561 85.84073,-30.73812 111.19121,-33.12251 18.90027,-1.77778 56.031,-16.5764 68.1586,-27.16524 4.43759,-3.87464 25.639597,-15.87495 47.115558,-26.66747 21.475778,-10.79246 43.938357,-24.33019 49.916816,-30.08386 5.978368,-5.75355 14.4989418,-11.70586 18.9343499,-13.22756 7.616279,-2.61303 41.4904411,-25.88187 44.0322811,-30.24689 0.64969,-1.1157 9.96641,-4.8603 20.70369,-8.32133 10.737341,-3.46083 22.737698,-8.47313 26.667568,-11.13828 31.799587,-21.56435 89.789307,-62.96823 94.739447,-67.64233 3.36061,-3.17357 9.77756,-6.99274 14.25943,-8.48722 4.48182,-1.49465 14.02934,-7.97442 21.21669,-14.399661 7.93576,-7.09401 16.79658,-11.878776 22.56105,-12.183111 5.22118,-0.275496 16.02554,-3.391396 24.00986,-6.924091 14.56329,-6.443676 73.70957,-49.225006 77.82459,-56.291602 1.20717,-2.073031 8.78969,-6.524662 16.85026,-9.892165 8.06064,-3.367607 16.22454,-8.7371494 18.14229,-11.9321674 1.92129,-3.193097 10.34851,-10.0392635 18.73517,-15.2091816 8.38639,-5.170243 19.73986,-13.193115 25.22942,-17.829145 5.48974,-4.63581 14.57464,-10.259512 20.18876,-12.497099 23.93212,-9.53839 72.14865,-36.45358 82.3878,-45.99031 6.10109,-5.68225 22.26507,-18.097687 35.92014,-27.589967 31.59778,-21.96488 43.96272,-32.45403 49.5316,-42.0173 2.44473,-4.19826 8.57522,-9.26857 13.62368,-11.26702 11.64779,-4.61133 43.84474,-32.48191 60.20623,-52.11644 43.41528,-52.10048 100.94642,-133.131 112.19881,-158.02839 6.2685,-13.87003 10.25176,-18.5824 24.09483,-28.49877 16.50364,-11.82295 16.69982,-12.1054 40.15053,-57.79788 12.96091,-25.25434 24.37015,-46.14797 25.35344,-46.4305 -181.94714,-188.3767 -314.38752,-650.63096 -557.61477,-553.51716 z m 113.68672,24.4169 c 0.90542,5.4236 1.91063,5.9599 8.54302,4.5587 251.88603,-81.2849 370.56629,19.4936 73,49.23656 -15.71187,1.6156 -35.66476,3.002 -44.34,3.0807 -21.92284,0.1992 -44.86119,4.2941 -64.76939,11.5626 -9.29898,3.3952 -18.40221,5.9134 -20.22934,5.596 -1.82733,-0.3171 -5.39804,-8.0788 -7.93543,-17.2478 -4.84411,-17.50436 -12.65045,-22.99626 -18.47355,-12.9964 -3.05311,5.2431 2.95455,28.2884 8.16547,31.3228 5.20423,3.0306 -3.10654,10.5986 -25.63643,23.346 -26.66426,15.08616 -78.79622,50.68527 -90.97794,62.12584 -4.57794,4.29943 -11.88342,11.08582 -16.23449,15.08091 -10.22857,9.39243 -10.26077,22.05406 -0.0513,20.34992 3.50948,-0.58605 9.47822,-4.60282 13.26411,-8.92609 19.20655,-21.93552 89.09176,-67.18973 143.58156,-92.97638 21.98997,-10.4067 56.09137,-17.6843 85.81976,-18.3149 17.18289,-0.3645 32.40012,0.012 33.81598,0.8364 1.41598,0.8245 11.1933,-0.1983 21.72715,-2.2731 10.53409,-2.0747 20.02318,-3.2653 21.087,-2.6458 114.86177,14.3763 122.38044,-2.2411 67.65617,91.94666 -19.2384,33.09065 -36.2993,60.51905 -37.92178,60.94685 -1.62282,0.42836 -4.02682,-2.61247 -5.34494,-6.75578 -2.21459,-6.96328 -3.79051,-7.89056 -20.79209,-12.23139 -16.60876,-4.24383 -27.00301,-4.63576 -60.5084,-2.28192 -5.7979,0.4072 -11.30671,0.29483 -12.24211,-0.24987 -0.93551,-0.54476 -9.88074,-0.43795 -19.87857,0.23721 -17.27148,1.16628 -33.28296,4.04217 -82.01018,14.73049 -11.76363,2.58033 -25.98064,5.36892 -31.59336,6.19701 -5.61265,0.82796 -16.45507,4.16248 -24.09413,7.40981 -19.26613,8.19011 -26.24777,2.14925 -16.62146,-14.38173 4.63907,-7.96654 0.56788,-19.52604 -6.46338,-18.35217 -6.42026,1.07172 -9.59978,9.30621 -12.51015,32.39995 l -1.84687,14.65418 -15.13589,5.48976 c -8.32483,3.01921 -23.7634,10.21353 -34.30812,15.98703 -10.54482,5.77343 -23.35749,11.91746 -28.4729,13.65344 -8.71738,2.95843 -9.72954,2.57503 -16.1423,-6.11547 -3.76284,-5.09941 -6.26513,-12.75714 -5.55992,-17.01689 1.72333,-10.41544 -2.15076,-20.08347 -8.45815,-21.10722 -7.48085,-1.21433 -10.26068,5.65279 -9.67219,23.8939 0.60334,18.7096 2.02706,22.42645 10.51224,27.44518 8.25537,4.88461 6.49198,7.19652 -18.58215,24.36537 -32.79019,22.45244 -82.201887,75.69731 -81.872817,88.22428 0.19078,7.26302 9.68631,4.48058 17.567607,-5.14846 16.54216,-20.20934 48.58256,-51.62231 57.72856,-56.59829 5.53368,-3.01041 13.26236,-9.01076 17.17545,-13.33359 3.91248,-4.32317 12.28414,-10.36236 18.60298,-13.42051 6.31891,-3.05828 17.66624,-9.51924 25.21651,-14.35745 7.55045,-4.83825 18.3741,-10.28894 24.05247,-12.11283 5.67854,-1.82394 15.86752,-5.96508 22.64234,-9.20282 44.67687,-21.35106 107.6683,-40.22935 145.50061,-43.60601 14.61187,-1.30423 27.27031,-3.57908 28.12997,-5.05534 0.85958,-1.47616 6.63629,-2.02514 12.83705,-1.21986 6.20075,0.80531 17.20731,-0.25557 24.45885,-2.35751 7.25161,-2.10205 15.28868,-2.59665 17.86031,-1.09914 2.57163,1.49751 9.06666,2.10763 14.43305,1.35573 16.63945,-2.33128 36.97051,1.50766 52.31827,9.8789 l 14.71214,8.02433 -25.71277,41.0935 c -14.14186,22.60143 -32.308,50.85007 -40.36923,62.77447 l -14.65641,21.68129 -19.38221,-3.06556 c -22.08842,-3.49371 -28.44624,-3.80802 -53.22277,-2.63182 -21.67671,1.02934 -91.12813,12.22986 -115.36488,18.60579 -20.20581,5.31529 -68.99271,23.37798 -87.25191,32.30416 l -12.30236,6.01402 -1.75711,-12.77099 c -0.96656,-7.02391 -3.54728,-13.81314 -5.73488,-15.08701 -5.73343,-3.3387 -10.26747,6.38577 -8.58306,18.40779 0.79597,5.68141 0.70139,11.61087 -0.21026,13.17642 -0.91165,1.56555 -10.74639,7.32746 -21.85428,12.80441 -11.10813,5.47678 -26.01043,13.70844 -33.11616,18.29266 -7.10556,4.58417 -13.71292,7.87271 -14.68353,7.30751 -0.97017,-0.56495 -6.73547,-8.2689 -12.81126,-17.1195 -10.14798,-14.78235 -11.62399,-15.93989 -18.134607,-14.2214 -10.68982,2.82175 -8.7754,12.82548 5.270887,27.53539 9.39615,9.84023 11.22212,13.72019 8.58652,18.24623 -1.84098,3.16145 -5.13934,6.29983 -7.32943,6.97412 -9.841707,3.03029 -45.103675,38.21422 -54.540395,54.41961 -10.23894,17.58303 -9.91746,24.47659 1.12788,24.18653 4.27725,-0.1124 5.62475,-2.14431 7.04995,-10.63264 1.52373,-9.07324 4.52311,-12.77886 22.159381,-27.37553 54.723094,-45.29208 88.671804,-66.97028 123.413434,-78.80637 10.88057,-3.70684 20.38381,-7.77202 21.11837,-9.03345 1.72571,-2.96351 66.16004,-26.58462 88.35171,-32.38893 74.06114,-19.37114 193.74513,-25.06483 172.78923,-8.22016 -1.88045,1.51084 -17.83385,24.3735 -35.45274,50.8051 -36.00794,54.01822 -77.84886,114.36728 -84.77217,122.27155 -3.46821,3.9586 -7.6283,4.06386 -17.03282,0.42972 -6.84445,-2.64475 -17.1313,-4.48191 -22.85984,-4.08226 -5.72856,0.39964 -18.17318,1.07363 -27.65495,1.49763 -25.89396,1.1576 -54.62618,6.06607 -87.52055,14.95143 -16.25063,4.38933 -30.53409,7.40571 -31.74183,6.70243 -3.63509,-2.11679 -8.18666,-20.64941 -5.99542,-24.41236 2.38366,-4.09339 -5.25163,-13.53538 -10.8267,-13.38893 -11.51854,0.30246 -13.05605,31.59644 -1.87238,38.1089 2.36846,1.3792 3.62693,3.67471 2.7964,5.10097 -1.82323,3.13097 -20.09494,12.97981 -41.59153,22.41866 -8.6792,3.811 -21.722687,11.23481 -28.985817,16.49728 -12.822697,9.29045 -21.693807,9.47368 -20.886477,0.43132 1.46459,-16.40049 -0.39067,-34.7421 -3.70967,-36.67482 -2.369851,-1.38001 -6.296391,0.99819 -9.891831,5.99036 -4.79783,6.66156 -5.10598,11.88484 -1.57882,26.73994 2.41073,10.15351 3.89275,19.30381 3.2931,20.33357 -0.59992,1.03023 -10.87698,8.43271 -22.83831,16.45112 -23.825664,15.97156 -32.1719231,28.01627 -23.082081,33.30946 3.847501,2.24048 7.432291,0.96892 12.145861,-4.30814 6.88201,-7.70455 37.70356,-29.87416 45.433961,-32.67995 9.23641,-3.35229 35.534624,-17.15313 36.880944,-19.35439 0.77434,-1.27662 5.93699,-4.14706 11.46201,-6.38489 5.52513,-2.23776 16.65399,-7.44391 24.7309,-11.5693 20.59473,-10.51845 94.60286,-30.13002 113.90429,-30.18351 8.8475,-0.0245 16.76299,-1.20672 17.59002,-2.62697 3.21394,-5.51918 48.62199,-4.83233 58.43828,0.88388 l 9.72356,5.66223 -13.10142,17.55708 c -7.20585,9.6563 -16.69199,23.02214 -21.0801,29.70173 -32.15353,48.94115 -78.51853,117.40086 -81.1008,119.74911 -1.71954,1.56386 -5.46618,1.481 -8.32526,-0.18389 -2.85888,-1.66478 -15.30069,-2.17911 -27.64769,-1.14268 -12.34717,1.03651 -28.55517,1.72012 -36.01786,1.51917 -7.46239,-0.20093 -18.0473,-0.0824 -23.52158,0.26326 -5.47417,0.3458 -19.42393,1.23383 -30.99952,1.9734 -11.575527,0.73975 -29.634464,4.93923 -40.131425,9.3322 -10.49648,4.39325 -20.42601,8.02273 -22.06525,8.06574 -1.63922,0.043 -3.00136,-7.47341 -3.02685,-16.70333 -0.0453,-16.26762 -6.62415,-28.0868 -15.50383,-27.85348 -6.32844,0.16615 -8.792096,7.17977 -5.23176,14.8927 3.98486,8.63273 6.05031,34.59865 3.14845,39.58194 -1.1607,1.99321 -5.939714,4.4333 -10.6200021,5.42232 -4.680417,0.98898 -9.332126,3.15785 -10.337175,4.81978 -1.000338,1.6647 -8.8895819,6.41548 -17.5206829,10.56351 -10.579291,5.08446 -16.984252,10.37989 -19.656427,16.25104 -6.981196,15.33984 0.684776,15.03976 26.089863,-1.02126 13.62820888,-8.61568 30.167084,-16.60189 36.752634,-17.74734 6.58558,-1.14528 12.74924,-3.41347 13.69673,-5.04057 0.94744,-1.627 8.67036,-5.21383 17.1621,-7.97066 8.49218,-2.75658 18.557151,-6.96945 22.367241,-9.36147 3.80981,-2.39235 13.757457,-3.92045 22.105327,-3.39612 8.348057,0.52427 19.970067,-0.0668 25.826657,-1.31372 5.85651,-1.24674 16.58548,-0.9287 23.84177,0.70685 7.25649,1.63551 15.23002,1.82957 17.71862,0.43098 6.82529,-3.83489 33.58869,-4.05778 39.9853,-0.33291 3.09538,1.80249 4.72414,4.84985 3.6195,6.77177 -2.31267,4.02461 -41.1378,54.50205 -61.48283,79.93681 -7.58003,9.47659 -17.36178,23.09005 -21.73687,30.25218 -13.68044,22.39343 -17.69187,24.67253 -35.599677,20.22191 -18.101897,-4.49901 -20.291367,-4.45287 -51.058228,1.07381 -12.12027,2.17717 -28.400106,5.10063 -36.1777471,6.49656 -7.777836,1.39598 -20.5328189,6.14192 -28.3448289,10.54623 -7.81184,4.404557 -15.312829,7.362197 -16.668391,6.572817 -1.355809,-0.78951 -2.099664,-8.004947 -1.65285,-16.034067 0.958897,-17.23828 -7.680509,-36.01995 -15.935308,-34.64205 -9.044144,1.50983 -9.581678,6.70764 -3.382169,32.70146 3.279638,13.751137 5.180587,26.345747 4.22435,27.987857 -0.956237,1.64212 -7.129283,6.67343 -13.718007,11.18041 -19.806771,13.54942 -40.437154,34.715851 -39.030444,40.044562 1.80917,6.854474 10.86253,4.409074 21.856743,-5.903767 5.081313,-4.766285 13.307586,-12.487165 18.280333,-17.157855 22.398855,-21.03593 83.687124,-42.35516 129.064769,-44.894887 13.345611,-0.74694 16.725721,0.24872 21.694211,6.390747 5.598827,6.92156 5.415687,7.86474 -3.76871,19.38256 -5.30979,6.65899 -12.531381,14.46381 -16.048591,17.34405 -3.51701,2.88019 -13.03564,14.967726 -21.15247,26.861177 C 30.896415,-18.548489 17.701645,-0.91847542 9.6916589,8.7358316 -4.7005861,26.083652 -5.0331491,26.262251 -18.631793,23.958564 -32.077744,21.680847 -41.350169,22.022612 -66.518991,25.724405 l -12.39976,1.823713 -7.957654,-13.170493 C -96.179303,-1.0193454 -105.15933,-5.3670299 -111.39048,2.5089496 c -3.64224,4.602728 -2.74306,7.268206 5.12974,15.2194884 12.217323,12.338941 9.573247,16.935828 -15.92624,27.689629 -22.00549,9.280433 -28.10199,14.355841 -34.869,29.030409 -4.58797,9.950413 -1.92427,14.647933 5.42076,9.55798 2.13496,-1.480481 10.33402,-7.330036 18.21874,-12.999656 19.46276,-13.995048 44.237543,-24.353184 62.560848,-26.156299 26.162945,-2.574317 44.270129,-3.050722 47.368873,-1.24627 3.552175,2.068502 -13.121798,24.929304 -32.396913,44.417775 -7.032242,7.110233 -15.501032,17.590364 -18.819463,23.289014 -6.987895,12.0001 -17.057309,15.85065 -23.827707,9.11157 -3.499778,-3.48406 -12.530848,-2.78524 -34.899148,2.70016 -26.82916,6.57933 -30.62565,6.67266 -34.21778,0.84106 -7.10209,-11.52994 -17.49354,-6.30038 -12.21981,6.14979 2.61851,6.18224 2.27538,6.77149 -7.2064,12.37533 -12.42157,7.34086 -21.0595,21.20111 -15.30194,24.55385 2.26949,1.32157 6.95004,-0.57037 10.40078,-4.20446 14.31148,-15.07141 70.91633,-30.53162 83.9649,-22.93319 5.13423,2.98976 0.97076,9.5162 -19.95917,31.28736 -23.94071,24.90328 -32.64937,34.49054 -41.01073,45.14768 -8.92537,11.37635 -9.21355,11.45399 -22.30308,6.00204 -15.37633,-6.40437 -32.85216,-1.70775 -40.16241,10.79411 -5.97404,10.20592 1.82995,14.6976 11.36016,6.5379 12.16641,-10.4159 30.11586,-7.31084 23.4921,4.06396 -1.36919,2.35125 -13.29719,11.30125 -26.50684,19.88894 -13.20957,8.58758 -25.73204,18.55818 -27.82764,22.15688 -2.09559,3.59872 -8.7953,10.77872 -14.88825,15.95565 -15.90207,13.51115 -21.8156,24.85109 -15.98512,30.6546 6.18541,6.15699 5.69268,6.67461 -12.00706,12.60991 -8.2881,2.77922 -19.51642,7.77801 -24.95184,11.10863 -5.4352,3.33054 -11.89843,4.8816 -14.36253,3.44671 -3.7566,-2.18754 -2.92515,-4.56513 5.14948,-14.72512 12.64247,-15.90839 14.46575,-17.82413 26.84846,-28.20834 7.60917,-6.3812 15.84635,-18.55069 29.89062,-44.16058 26.44777,-48.22794 62.2523,-121.93711 68.71063,-141.45133 2.92256,-8.83137 6.91826,-16.91241 8.87912,-17.95821 1.9607,-1.04577 6.57241,-13.249331 10.24749,-27.119457 3.67532,-13.87 9.55036,-32.783065 13.05603,-42.02887 3.5056,-9.245663 9.22102,-24.488525 12.70097,-33.872864 3.47999,-9.38415742 9.42829,-22.387719 13.2186,-28.896703 17.65584,-30.319869 36.46426,-86.270756 34.04852,-101.287686 -1.02946,-6.40045 -0.83626,-13.41558 0.42942,-15.5891 1.26561,-2.17339 11.066303,-23.62246 21.779623,-47.66452 17.634181,-39.57387 21.815948,-53.36964 21.39443,-70.58202 -0.07657,-3.12291 1.661415,-12.18523 3.862584,-20.13848 2.201169,-7.95325 4.506089,-19.20405 5.122261,-25.00194 1.167878,-10.98897 4.648477,-20.77814 19.783862,-55.64284 4.978042,-11.46673 10.227337,-27.71937 11.664963,-36.11723 1.437911,-8.39756 4.387842,-21.97589 6.555448,-30.17401 2.167386,-8.19827 3.229995,-19.97933 2.361027,-26.18021 -0.868787,-6.20094 -0.907684,-12.4279 -0.08657,-13.83788 0.821051,-1.40997 2.173927,-9.36351 3.006633,-17.67472 0.832706,-8.31121 4.5614818,-23.25835 8.2858049,-33.21615 3.724441,-9.95773 8.820484,-23.62832 11.32434,-30.37899 2.503674,-6.75092 4.494395,-15.66621 4.423273,-19.81214 -0.12745,-7.40103 3.9351341,-20.20728 21.9811131,-69.28846 4.9718,-13.52255 10.12204,-30.6725 11.44513,-38.1109 5.93768,-33.38413 54.991541,-126.07561 80.757118,-152.59805 7.00337,-7.20884 21.38747,-24.85849 31.9644,-39.22159 27.36035,-37.15394 45.30542,-53.6083 58.2778,-53.43674 8.22837,0.10864 10.92163,-1.48554 12.97655,-7.68118 1.42606,-4.30011 9.11094,-14.93683 17.07759,-23.63703 48.10802,-52.5388 59.70618,-64.35736 78.44985,-79.93946 11.43203,-9.5033 30.2112,-23.5083 41.73158,-31.1225 827.0336,-396.9754 79.22838,-56.7471 76.34363,14.9159 z m 186.42908,108.51503 c -17.58911,5.23507 -57.16689,60.54826 -54.9156,76.74847 1.6409,11.8075 9.09315,5.53638 25.89543,-21.79159 13.398,-21.79156 20.00954,-29.84166 30.07556,-36.61987 19.79675,-13.33116 19.16244,-24.35473 -1.05539,-18.33701 z m -60.2572,5.05312 c -14.96399,1.56284 -43.60035,56.17854 -35.03978,66.82826 1.81469,2.25844 6.50865,3.25809 10.42978,2.22353 6.56678,-1.73342 7.21206,-2.8806 8.17391,-14.53348 1.28755,-15.60302 7.72062,-27.05006 20.7338,-36.89632 14.17111,-10.72137 12.07076,-19.33175 -4.29816,-17.62226 z m -31.34305,136.93493 c -1.85956,0.99159 -14.81153,18.30877 -28.78227,38.48268 -27.61321,39.87362 -33.31622,54.29041 -22.91961,57.93603 4.67528,1.6399 7.98238,-2.19398 24.25944,-28.12175 39.35175,-62.68351 39.32476,-62.63209 34.9132,-66.50727 -2.24917,-1.97633 -5.61106,-2.78182 -7.47076,-1.78969 z m -46.63851,12.40185 c -7.45672,2.72837 -31.45505,28.92125 -40.57412,44.28451 -6.95332,11.70163 -10.5499,28.54657 -6.5981,30.84778 2.87998,1.67708 11.96052,-9.34926 22.92483,-27.83641 5.55318,-9.3769 14.43343,-19.21716 22.77046,-25.25797 7.5141,-5.44404 14.0171,-12.0876 14.45139,-14.76347 1.02998,-6.34492 -5.50327,-10.00801 -12.97472,-7.27398 z m -73.89921,161.20933 c -2.28117,1.21656 -16.32028,21.16583 -31.1984,44.33188 -21.80327,33.94931 -26.76493,43.34123 -25.57961,48.41375 0.98027,4.19311 2.94196,5.90568 5.87742,5.13091 4.8622,-1.28336 60.44199,-83.1882 61.69669,-90.91899 0.96857,-5.96588 -5.20027,-9.94137 -10.79589,-6.95789 z m -137.74818,222.36957 c -2.88564,1.05572 -13.31489,13.89836 -23.17629,28.53908 -14.96504,22.21793 -17.56213,27.62522 -15.70396,32.7029 1.22403,3.34585 3.39875,5.42559 4.8322,4.62154 1.43333,-0.80411 12.0851,-15.67157 23.67038,-33.03868 20.69312,-31.02035 22.68838,-37.32868 10.37767,-32.82484 z m 651.71992,-338.14349 c -6.4824,21.86033 -11.1752,39.15509 -13.1149,48.33238 -0.9655,4.56843 -5.15443,18.91991 -9.30879,31.89231 -4.15454,12.97244 -8.50542,29.04315 -9.66917,35.71259 -1.16326,6.6697 -8.41739,27.63177 -16.11975,46.58258 -7.70253,18.95084 -16.54604,41.37146 -19.65235,49.82364 -3.10627,8.45236 -15.84112,32.34588 -28.29985,53.09682 -18.96335,31.58515 -23.9567,38.14321 -30.66317,40.27318 -6.72936,2.1369 -11.25167,8.10858 -28.26382,37.32304 -11.13889,19.12848 -34.38406,53.31395 -51.65633,75.96769 -17.27196,22.65378 -34.46254,46.40786 -38.20144,52.78686 -9.75666,16.64856 -33.84052,40.36857 -50.78383,50.01895 -8.01694,4.5666 -18.75945,13.42281 -23.87208,19.6805 -32.78765,40.13043 -91.72433,84.35862 -147.87986,110.973957 -35.95199,17.03957 -77.50889,43.044047 -87.78336,54.93084 -4.19531,4.853993 -11.93491,10.530465 -17.19882,12.614425 -5.26421,2.083946 -10.78608,5.8759141 -12.27128,8.4264021 -1.48519,2.550501 -9.09026,8.2397305 -16.89981,12.6429905 -7.80955,4.4032854 -24.03371,15.5590724 -36.05375,24.7906274 -22.01245,16.906653 -34.1617,23.137129 -59.92177,30.729813 -7.71242,2.273252 -19.9375,9.350244 -27.16703,15.726795 -7.22922,6.376576 -14.67258,11.633829 -16.5407,11.682899 -1.86803,0.0489 -7.88404,4.5413 -13.36871,9.982731 -5.48468,5.4414 -23.49535,17.96988 -40.02371,27.84118 -16.52831,9.8713 -32.81706,20.53509 -36.196717,23.69757 -13.46994,12.60373 -50.030038,30.56727 -55.605238,27.32072 -3.35145,-1.95161 1.76644,-20.95667 12.59461,-46.76983 17.050391,-40.646131 15.975041,-39.156421 24.847551,-34.415101 4.331927,2.315311 9.078467,3.891531 10.546977,3.504291 5.45662,-1.440461 4.13009,-11.228041 -2.35894,-17.405185 -9.719727,-9.252437 -11.802977,-18.192338 -7.232057,-31.03708 5.453387,-15.32538 7.209377,-77.793183 2.406087,-85.591161 -2.779937,-4.512786 -5.231137,-5.905545 -8.756407,-4.975278 -5.19955,1.372421 -6.39781,10.800835 -5.90321,46.2879756 0.48969,34.8849614 -9.746491,74.6261204 -30.158911,117.0881784 -10.81803,22.50347 -15.09894,39.10579 -13.3334,51.70769 0.7946,5.6718 0.64188,11.69131 -0.33944,13.3765 -3.13806,5.38891 -70.33413,49.54503 -102.611107,67.42842 -17.1564,9.50556 -43.567678,24.78733 -58.691888,33.95936 -23.11052,14.01541 -32.01831,17.29815 -55.82254,20.57073 -15.57838,2.14172 -38.16809,7.42485 -50.19973,11.74005 -12.03173,4.31504 -22.25559,6.37912 -22.72011,4.58677 -1.32559,-5.11611 28.24063,-32.14375 52.12749,-47.65196 11.93888,-7.75093 23.82165,-17.62212 26.40644,-21.93586 2.58824,-4.31189 8.31681,-9.93469 12.73824,-12.49053 4.42119,-2.55596 11.59429,-10.65146 15.94038,-17.98979 10.97233,-18.52639 12.69209,-11.49741 2.64533,10.8098 -4.56727,10.14063 -7.78352,20.40914 -7.14737,22.81907 1.72096,6.51964 10.38719,3.1553 15.75032,-6.11436 7.13314,-12.32923 16.09416,-39.48053 15.06475,-45.64678 -0.66654,-3.99248 2.3849,-9.49075 10.62595,-19.14801 6.35887,-7.45069 18.64988,-22.85173 27.313723,-34.22433 8.663846,-11.37261 19.197388,-23.34733 23.40763,-26.6106 4.21067,-3.26318 12.598889,-12.6507 18.640436,-20.86136 7.299887,-9.9198 12.23519,-14.200281 14.710947,-12.758591 6.286998,3.661041 -3.772345,58.226901 -14.039383,76.154861 -14.463043,25.25393 -16.948015,49.4556 -5.748192,55.97748 5.377472,3.13141 9.977383,-1.36354 8.493424,-8.30023 -0.94427,-4.41513 6.470579,-31.20568 10.599316,-38.29583 1.411759,-2.42437 6.395642,-3.77436 11.075203,-2.99992 11.868883,1.96406 14.712778,-5.29646 6.385623,-16.30268 -5.831697,-7.70782 -6.404689,-12.92702 -3.368528,-30.67286 2.012032,-11.7616 2.41259,-27.7529 0.889527,-35.536401 C -25.699182,83.064885 -25.672303,82.991141 -8.8397832,58.500072 0.43574288,45.004323 13.396242,28.694776 19.961005,22.256383 c 6.56507,-6.438095 19.68054,-23.14735742 29.14587,-37.131581 9.46553,-13.984094 22.607971,-30.562755 29.206361,-36.840835 6.598417,-6.27808 16.263727,-18.74184 21.478647,-27.69725 5.214827,-8.95528 15.813307,-21.675247 23.551827,-28.266697 7.739,-6.59117 13.81206,-12.9636 13.4961,-14.16063 -0.77387,-2.93168 35.05752,-49.47889 41.06485,-53.34652 4.72261,-3.04008 34.53485,-44.69728 48.71867,-68.07524 4.06016,-6.69086 9.01546,-11.83087 11.01318,-11.42184 4.044,0.82843 5.21875,27.81189 3.36538,77.30275 -1.16111,31.0054 -2.19983,39.78296 -10.12118,85.523007 -1.77554,10.25327 -8.45158,29.87286 -14.83574,43.59913 -6.38415,13.726284 -16.35092,36.447228 -22.14844,50.4911276 -11.27575,27.3134714 -22.11134,43.2678724 -44.1868,65.0601984 -13.5637,13.38939 -13.78598,13.85183 -11.21829,23.317756 2.46554,9.08813 3.00075,9.494591 9.08255,6.89739 6.08971,-2.60064 41.62099,-46.337217 47.84731,-58.896625 1.57924,-3.184726 5.87132,-10.759888 9.53805,-16.833557 3.66211,-6.07633 9.57446,-20.7631254 13.12744,-32.643831 3.55337,-11.880304 7.86879,-21.960516 9.59006,-22.400204 1.72057,-0.43952 7.71309,1.869669 13.31519,5.13189 8.17985,4.763286 10.79722,4.880028 13.29514,0.590409 2.02492,-3.477328 0.74114,-7.979744 -3.6793,-12.904665 -10.39898,-11.585689 -10.86752,-15.310239 -4.31673,-34.326419 14.3601,-41.687817 19.01419,-183.601337 6.26465,-191.025637 -2.65882,-1.54829 -4.86945,-4.16873 -4.91284,-5.8235 -0.0432,-1.6547 17.01013,-28.24424 37.89675,-59.08773 62.18603,-91.83049 79.70195,-116.35013 83.90941,-117.46048 4.96856,-1.31173 6.31948,4.05889 13.33294,52.98371 8.82669,61.58002 -1.922,164.45927 -23.55856,225.4868 -14.66269,41.35649 -59.45235,134.204537 -71.78862,148.815043 -6.163,7.299497 -12.47667,16.4121941 -14.03008,20.25056058 -3.42901,8.47274802 1.17216,15.07502342 9.5334,13.67930542 4.96782,-0.829189 11.08434,-9.5048454 31.88653,-45.227833 14.87922,-25.551639 27.39873,-50.292039 29.67195,-58.636229 2.16272,-7.939 5.45182,-14.835547 7.30894,-15.325777 1.857,-0.49028 6.61222,4.74282 10.56648,11.630037 8.48779,14.78141 12.9988,17.94957 21.25632,14.9283 8.02578,-2.93646 5.98705,-9.68382 -8.04222,-26.620987 -13.40683,-16.18542 -15.17153,-23.48835 -8.46108,-35.01203 7.41813,-12.73893 22.60097,-63.31415 22.14191,-73.75589 -0.43473,-9.88829 3.37363,-17.75595 7.44728,-15.38379 1.56067,0.90881 7.13504,8.48117 12.38761,16.82764 9.70801,15.42657 20.50603,22.79971 26.11147,17.8295 4.00644,-3.55254 -5.77832,-21.7155 -19.77626,-36.71 -12.91633,-13.83587 -21.63573,-31.50866 -18.33907,-37.16989 1.28114,-2.20008 2.54621,-10.13935 2.81122,-17.643 0.26513,-7.50357 1.2667,-14.99062 2.22596,-16.63793 2.68417,-4.60942 4.56389,-50.96638 2.9348,-72.3802 -1.34505,-17.68212 -8.5935,-57.8388 -14.07271,-77.9642 -3.1827,-11.68954 7.79957,-35.35737 35.09525,-75.63306 12.31298,-18.16825 22.35073,-34.41774 22.3066,-36.11003 -0.0446,-1.69228 6.17842,-9.42809 13.82869,-17.19066 7.65019,-7.76264 15.76057,-17.88495 18.02323,-22.49375 11.04326,-22.49744 25.69939,-42.76236 30.3774,-42.00306 8.37508,1.35939 49.47766,171.82239 50.1685,208.06116 0.12563,6.58466 1.27062,19.29966 2.54467,28.256 3.98533,28.01617 -0.78842,54.54755 -22.48651,124.97379 -9.32327,30.26119 -16.73149,48.12974 -28.03834,67.62687 -30.48438,52.56245 -54.64962,99.83595 -53.41994,104.49397 0.88842,3.3665 3.46211,4.14604 8.93061,2.70458 8.39512,-2.21271 9.3545,-3.74179 50.02032,-79.7242 12.56062,-23.46898 24.6707,-47.89985 26.9111,-54.29108 4.68713,-13.37127 6.33444,-13.21515 12.86184,1.21873 5.98789,13.24092 16.69601,18.03628 22.8557,10.23546 3.0043,-3.80468 3.14412,-7.30889 0.40989,-10.31514 -2.27708,-2.50449 -8.59158,-10.67797 -14.03165,-18.16438 -9.04193,-12.44258 -9.52214,-15.02045 -5.59039,-30.01443 2.36576,-9.02153 6.53444,-22.08363 9.26444,-29.02662 2.72991,-6.94289 4.558,-15.95287 4.06297,-20.02179 -0.49539,-4.06913 0.66457,-10.17749 2.57739,-13.57441 3.20046,-5.682 4.0233,-5.53863 10.30824,1.80226 4.79934,5.6057 8.21656,7.61247 11.4888,6.75204 7.86662,-2.07644 6.75768,-10.80533 -3.10266,-24.41424 -10.83419,-14.9529 -14.66146,-28.801 -16.00332,-57.90427 -0.52419,-11.36356 -3.24009,-31.52665 -6.03586,-44.80736 -7.04584,-33.47015 -9.29724,-46.65917 -10.32865,-60.50529 -0.48867,-6.56159 -3.97622,-23.70423 -7.74966,-38.09447 -3.77378,-14.39044 -7.74883,-30.87896 -8.83341,-36.64105 -1.08446,-5.76203 -6.20405,-20.49676 -11.37691,-32.74406 -5.1726,-12.24699 -9.11149,-25.45485 -8.75362,-29.35081 0.47418,-5.15937 70.18687,-115.23657 79.84559,-126.07686 2.99299,-3.36027 28.42934,59.72617 29.08194,72.12942 0.0845,1.61576 4.14214,13.39905 9.01569,26.18457 4.8737,12.78544 11.45,34.65164 14.6141,48.59165 3.164,13.9399 7.80918,29.23805 10.32233,33.99574 12.75454,24.14484 27.67794,144.22068 19.6398,158.02436 -1.26648,2.17488 -1.69123,6.27146 -0.94378,9.10348 1.33411,5.05368 0.43084,12.21921 -6.23655,49.47253 -3.97071,22.1854 -29.76883,100.99057 -37.28802,113.90308 -6.65532,11.42897 -5.67549,22.78133 2.19958,25.48059 4.10927,1.40773 7.20403,-0.1699 9.76672,-4.97952 8.53708,-16.02295 32.0885,-85.67029 36.33989,-107.4658 2.51651,-12.90015 5.98495,-27.0499 7.70782,-31.4438 1.72334,-4.39362 2.88482,-19.27849 2.58222,-33.07665 -0.30267,-13.79804 0.26929,-26.49473 1.27087,-28.2147 1.23944,-2.12846 6.46862,0.2627 16.37405,7.48741 11.29397,8.23743 15.4254,9.91356 18.44665,7.48502 6.3324,-5.09037 2.56313,-14.9878 -8.17538,-21.46685 -16.36171,-9.87109 -25.71817,-22.93126 -24.97088,-34.85262 0.37212,-5.94 -0.14195,-17.31188 -1.14235,-25.27077 -1.00057,-7.95913 -1.3665,-15.24883 -0.81312,-16.19913 4.76476,-8.18238 -52.50389,-204.33511 -70.40133,-241.13384 -17.68454,-36.36067 -19.33282,-28.55717 20.02179,-94.79789 47.90886,-95.8689 59.41177,-67.9415 86.09774,18.28813 l 5.59603,19.22464 -8.8589,-1.74228 c -10.79877,-2.12396 -12.31881,-0.58373 -33.48744,33.92505 -22.75654,37.09784 -26.20864,51.60463 -12.15818,51.08813 3.9452,-0.14471 8.71117,-6.37228 18.70822,-24.44478 15.40457,-27.84553 35.69457,-56.1474 38.91147,-54.27415 1.206,0.70229 4.63732,9.57565 7.62481,19.71844 2.98762,10.14286 7.89629,24.30224 10.90788,31.46515 14.99591,35.66778 33.96317,113.03141 40.79108,166.37878 2.47808,19.36174 -1.59009,57.52361 -8.88589,83.35547 -6.82967,24.18043 -5.71019,37.31597 3.30443,38.77916 6.93533,1.1257 10.50309,-5.60721 12.21867,-23.05969 0.7762,-7.89174 3.14013,-20.89773 5.25346,-28.90198 5.58359,-21.14736 7.08012,-40.68415 5.10131,-66.59837 -2.83052,-37.0656 -5.8274,-55.8352 -11.44961,-71.70908 -2.91044,-8.21757 -4.28954,-16.66237 -3.06441,-18.76624 2.69264,-4.62398 15.96999,2.46895 24.60548,13.14511 6.31627,7.80843 19.64046,13.39501 22.05559,9.24757 0.77659,-1.33363 0.76181,-6.63098 -0.0328,-11.77214 -1.33349,-8.62749 -3.43588,-10.44874 -27.29996,-23.64898 l -25.85549,-14.30142 -6.139,-19.84782 c -3.3764,-10.91629 -7.8271,-23.33556 -9.89042,-27.59856 -177.0225,-260.7384 345.21305,-493.4742 140.20819,52.34027 z M 691.90469,-872.82203 c -22.15721,36.876 -40.74139,70.98915 -42.52678,78.06401 -0.95433,3.78216 0.80797,6.80706 4.93565,8.4711 6.3187,2.54739 6.88064,1.76695 35.58629,-49.43268 32.99367,-37.41342 31.73121,-86.46945 2.00484,-37.10243 z m 29.59824,130.80692 c -6.59579,1.74096 -27.981,37.55393 -25.35998,42.46895 1.02403,1.9202 4.64556,3.02688 8.04813,2.45841 4.6551,-0.77714 8.80335,-5.98748 16.75735,-21.04789 10.53843,-19.95386 10.69167,-26.55535 0.5545,-23.87947 z m -112.43754,3.7877 c -12.7176,7.03144 -60.30005,77.62223 -60.001,89.01414 0.0568,2.14667 2.53627,5.32005 5.51108,7.05234 4.88858,2.84673 6.61647,1.07382 17.97997,-18.44753 6.9152,-11.87786 20.01383,-31.06517 29.1097,-42.63762 13.12656,-16.70018 16.32054,-22.34527 15.48306,-27.36416 -1.1482,-6.87774 -4.20632,-9.75988 -8.08259,-7.61704 z m 9.82519,59.52775 c -6.29993,2.90801 -11.9026,10.40112 -24.88271,33.27924 -19.30296,34.02217 -24.42361,47.4466 -19.24664,50.46124 3.36566,1.9599 20.51375,-22.01843 51.62823,-72.19134 7.01633,-11.31588 3.55287,-16.65078 -7.49888,-11.54914 z m -111.58778,92.44759 c -2.68898,0.98387 -12.41436,13.27083 -21.61189,27.30461 -9.19753,14.03376 -26.13094,39.68634 -37.62969,57.00607 -18.08843,27.24591 -20.83499,32.84718 -20.37552,41.55573 0.78636,14.90251 9.37501,12.14551 17.63645,-5.66189 3.56059,-7.67355 21.00755,-34.35729 38.77288,-59.29622 17.76476,-24.93927 32.66813,-47.61379 33.11856,-50.38776 1.14825,-7.07547 -4.10001,-12.64671 -9.91079,-10.52054 z m -5.80689,79.52315 c -8.92163,7.21711 -34.70998,54.11507 -30.958,56.29991 6.31713,3.6786 45.98622,-53.32412 41.08046,-59.03122 -1.52143,-1.77062 -6.07692,-0.54125 -10.12246,2.73131 z m -147.94569,109.75481 c -1.99266,1.06348 -8.5495,9.41855 -14.56919,18.56803 -6.0193,9.14956 -23.03832,34.77918 -37.81912,56.95531 -14.78098,22.17589 -27.21669,42.30196 -27.63491,44.72444 -1.21933,7.06128 8.49403,8.36251 15.0161,2.01151 3.29006,-3.20382 13.17882,-17.89557 21.97435,-32.64875 8.79523,-14.75319 22.98497,-34.56512 31.532,-44.02672 8.54699,-9.46177 15.97727,-19.09718 16.51154,-21.41218 0.53448,-2.31487 2.22416,-8.09715 3.75465,-12.8496 2.79905,-8.68971 -2.02265,-14.91777 -8.76542,-11.32204 z m -158.7857,245.41866 c -3.20358,1.97329 -14.61667,15.24567 -25.36215,29.49453 -10.74572,14.2487 -22.14559,27.513317 -25.33339,29.476787 -6.84288,4.21514 -6.00685,12.19044 1.40393,13.39337 6.24213,1.01312 21.31412,-14.07722 41.76295,-41.813657 12.92018,-17.52468 16.04341,-23.44559 14.85687,-28.16387 -1.26806,-5.04013 -2.41449,-5.41339 -7.32787,-2.38697 z m 760.54519,-535.78586 c 670.18079,-2923.56559 335.09029,-1461.78279 0,0 z"
         id="path4038"
         inkscape:connector-curvature="0"
         sodipodi:nodetypes="ccssccssscsscsscssscssssscccscssssscccccssscccscsscsssccccccsccsccscssccsssccsscsccsssscsssssssscsssscsccssscccccssscscssscssccccssccscsssccssscscccssscsccssccccscccscsscscssccssscscssccscsscsscsssscscsccscccscscsscssccccsscccsccsccsccscsccsscsccscsssscsscssssssssccssccccscscsccssscccscssccsccssccsscscssscssscsccssscsssssccccccccsccscsssccccsscscccsssccssscscscsscsssccsssssscssscsssscccccssscscsscscccccscccscccsccccscscsssccsssscsccsssssccsccsssscscsssscssscscsscsssscsssscsscsscsssscssssssccscccscccssccsscscsssccssccccccccccssccccsssscccsscsssccscssccssscssscccssccssccscc" />
    </clipPath>
    <clipPath
       clipPathUnits="userSpaceOnUse"
       id="clipPath3466">
      <path
         style="fill:#000000"
         d="m 235.59925,-988.04788 c -1.8076,0.97271 -8.9672,7.88463 -15.90991,15.36025 -21.66346,23.32561 -28.86812,30.24786 -36.26104,34.83964 -11.37454,7.06481 -32.06301,28.91536 -58.64939,61.94293 -13.5445,16.82636 -31.645066,38.30409 -40.223285,47.72835 -17.351065,19.06249 -39.079223,55.35066 -54.831547,91.57408 -10.544816,24.24876 -13.873761,33.51723 -27.2169972,75.77607 -4.1138221,13.02878 -10.7242699,30.99537 -14.6895108,39.92609 -3.965657,8.93032 -6.551415,18.69496 -5.746679,21.69869 0.804736,3.00363 -3.105162,15.41831 -8.688735,27.58789 -6.091462,13.27653 -9.32364,24.3648 -8.080882,27.72287 1.139278,3.07808 0.109723,8.99455 -2.287937,13.14736 -6.288774,10.89245 -12.904368,39.52156 -15.155671,65.58784 -2.225858,25.77125 -9.385618,70.92539 -13.101528,82.62656 -1.378244,4.33891 -7.965384,21.72421 -14.639026,38.63359 -12.869492,32.60814 -20.785682,65.77642 -20.421612,85.56264 0.2387,12.9673 -12.33088,49.06635 -30.11967,86.50115 -11.55595,24.31868 -17.27227,45.62774 -16.39636,61.1248 0.69363,12.279586 -13.17128,50.8659 -33.44545,93.078458 -21.00738,43.739347 -27.21463,59.177949 -29.85461,74.253299 -6.54245,37.358756 -75.08285,186.931043 -106.38128,232.150223 -29.99553,43.33734 -85.20211,102.33175 -101.17936,108.12216 -11.73471,4.25277 -22.48607,17.42676 -19.20253,23.52937 5.26911,9.79313 39.88591,1.10391 74.30044,-18.65034 9.81141,-5.63159 21.73081,-11.35299 26.48809,-12.71414 4.75689,-1.36125 15.41456,-5.29058 23.68358,-8.73188 45.41163,-18.89973 85.9794,-31.14903 111.39582,-33.63503 18.9494,-1.85345 56.13451,-16.83429 68.25836,-27.4995 4.4363,-3.90274 25.65611,-16.01755 47.155212,-26.922 21.4989,-10.90442 43.977275,-24.5659 49.951908,-30.35884 5.97457,-5.79284 14.498088,-11.79451 18.940891,-13.33722 7.6290185,-2.64917 41.516372,-26.11302 44.04944,-30.50042 0.64744,-1.1214 9.977682,-4.91181 20.733748,-8.42309 10.756105,-3.5111 22.773197,-8.58296 26.704714,-11.27062 31.813037,-21.74659 89.819447,-63.48898 94.766767,-68.19534 3.35869,-3.19546 9.78034,-7.04983 14.26986,-8.56545 4.48948,-1.51578 14.04098,-8.05027 21.22559,-14.52128 7.93266,-7.144429 16.80186,-11.976485 22.5822,-12.303241 5.23557,-0.29579 16.06018,-3.46117 24.0549,-7.034076 14.58217,-6.5169 73.74349,-49.645211 77.84431,-56.748009 1.20299,-2.083646 8.79122,-6.576603 16.86308,-9.984199 8.07182,-3.407491 16.23979,-8.823333 18.15134,-12.0350609 1.91495,-3.209587 10.34161,-10.1074995 18.73374,-15.3239594 8.39179,-5.2166677 19.74889,-13.3056627 25.2373,-17.9757517 5.4887,-4.670061 14.57944,-10.344269 20.20173,-12.609281 23.96723,-9.655927 72.22569,-36.830371 82.45948,-46.433462 6.09791,-5.721759 22.26327,-18.23414 35.92322,-27.80537 31.60907,-22.14743 43.97145,-32.71378 49.52109,-42.32603 2.43629,-4.21977 8.56587,-9.32779 13.62181,-11.35098 11.66502,-4.66852 43.85295,-32.74131 60.18957,-52.49493 43.34919,-52.41611 100.74789,-133.90038 111.94062,-158.9132 6.23528,-13.93434 10.2127,-18.67549 24.05966,-28.67276 16.50822,-11.91939 16.70395,-12.20342 40.05345,-58.11818 12.90497,-25.37735 24.2699,-46.37511 25.25511,-46.66206 0.98587,-0.28683 3.35319,4.77739 5.26195,11.25399 -42.00509,-265.67091 -452.46149,-681.05232 -641.39597,-489.6126 z m 6.32819,111.09016 c -4.57538,4.32921 -11.87714,11.16299 -16.22616,15.18615 -10.22371,9.45817 -10.20876,22.15727 0.0245,20.41001 3.51764,-0.60092 9.48902,-4.65174 13.26992,-9.00179 226.53444,-259.77545 572.37362,-8.02955 249.91798,15.36641 -5.81346,0.42995 -11.33893,0.33778 -12.27911,-0.20498 -0.94031,-0.54295 -9.91158,-0.40238 -19.93642,0.31211 -17.31811,1.23414 -33.36607,4.17813 -82.19724,15.07977 -11.7887,2.63178 -26.03728,5.48171 -31.66349,6.33317 -5.62615,0.85127 -16.4881,4.23619 -24.13763,7.52156 -19.29239,8.28616 -26.31721,2.25345 -16.72414,-14.36235 4.62305,-8.0072 0.49675,-19.58573 -6.5509,-18.38209 -6.43524,1.09888 -9.59341,9.3695 -12.4262,32.5422 l -1.79771,14.70439 -15.16007,5.56244 c -8.33812,3.05911 -23.79541,10.33221 -34.34972,16.16208 -10.55443,5.82976 -23.38198,12.03976 -28.50601,13.80001 -8.73206,2.99957 -9.74864,2.61882 -16.21276,-6.07335 -3.79297,-5.10036 -6.33121,-12.7714 -5.63981,-17.04632 1.6896,-10.45269 -2.23201,-20.13481 -8.56184,-21.13811 -7.50744,-1.19 -10.26986,5.70781 -9.61161,24.00065 0.67493,18.76246 2.1167,22.48498 10.64565,27.48687 8.29796,4.86816 6.53797,7.19359 -18.54612,24.50664 -32.80321,22.64097 -82.162149,76.22724 -81.785436,88.79007 0.218506,7.28372 9.73162,4.45771 17.600309,-5.22918 16.515617,-20.33071 48.533397,-51.95598 57.687827,-56.98075 5.53877,-3.0399 13.26789,-9.08683 17.17639,-13.43695 3.90792,-4.35052 12.28176,-10.43879 18.60784,-13.5295 6.32616,-3.09096 17.68286,-9.61332 25.23738,-14.49386 7.55469,-4.88068 18.38995,-10.38783 24.07829,-12.23834 5.6885,-1.85051 15.8921,-6.04187 22.67483,-9.31436 44.72906,-21.58076 107.83598,-40.74978 145.76738,-44.27744 14.65011,-1.36259 27.33743,-3.69135 28.19411,-5.17528 0.85663,-1.48364 6.64834,-2.05577 12.87043,-1.27127 6.22203,0.78449 17.25713,-0.32054 24.52221,-2.45579 7.26521,-2.13524 15.32414,-2.66123 17.90894,-1.16897 2.5848,1.49236 9.10129,2.08002 14.48069,1.30594 16.67984,-2.40018 37.08521,1.37434 52.50956,9.71288 l 14.7855,7.99318 -25.63544,41.31073 c -14.09922,22.72085 -32.2136,51.12054 -40.25418,63.11035 l -14.61879,21.79983 -19.45084,-3.00223 c -22.16663,-3.42165 -28.54438,-3.71327 -53.38968,-2.44109 -21.73684,1.11317 -91.35144,12.60582 -115.63594,19.091 -20.2456,5.40629 -69.10912,23.70432 -87.38892,32.72491 l -12.31623,6.07765 -1.80992,-12.80214 c -0.99564,-7.04101 -3.60929,-13.8407 -5.80811,-15.1101 -5.76279,-3.32723 -10.27394,6.44284 -8.53972,18.49409 0.8195,5.69526 0.74677,11.64257 -0.16174,13.21612 -0.90849,1.57355 -10.75076,7.38914 -21.87101,12.92374 -11.12048,5.53433 -26.03614,13.84602 -33.14566,18.47007 -7.10944,4.62432 -13.72404,7.94712 -14.69963,7.38384 -0.97513,-0.56291 -6.78617,-8.26807 -12.912905,-17.12218 -10.233064,-14.78815 -11.717749,-15.94353 -18.241175,-14.19579 -10.710846,2.87001 -8.753523,12.89618 5.389139,27.5971 9.460534,9.83429 11.306368,13.71885 8.679933,18.26795 -1.834686,3.17781 -5.131001,6.33768 -7.325075,7.02205 -9.859439,3.07605 -45.094243,38.49525 -54.498445,54.78376 -10.20351,17.67306 -9.855414,24.58589 1.221422,24.25381 4.289531,-0.12881 5.633382,-2.17171 7.031169,-10.69046 1.494337,-9.10565 4.488799,-12.83347 22.122621,-27.53882 54.715726,-45.63005 88.683716,-67.49878 123.483786,-79.49947 10.89887,-3.75828 20.41499,-7.87101 21.14701,-9.13891 1.71974,-2.97858 66.25613,-26.9098 88.49164,-32.81402 74.20746,-19.70459 194.22345,-25.8615 173.26852,-8.88887 -1.88035,1.52223 -17.79555,24.51196 -35.36786,51.08729 -35.91274,54.31186 -77.65203,114.99514 -84.56637,122.9487 -3.46361,3.98305 -7.63558,4.10414 -17.0814,0.49439 -6.87454,-2.62704 -17.19859,-4.43128 -22.94255,-4.00908 -5.74397,0.42221 -18.22281,1.14464 -27.73098,1.60516 -25.96607,1.25764 -54.76478,6.28773 -87.72307,15.32209 -16.28229,4.46302 -30.5966,7.54147 -31.81051,6.84053 -3.65374,-2.10939 -8.28786,-20.67972 -6.10419,-24.46202 2.37537,-4.11424 -5.3176,-13.55578 -10.90864,-13.38791 -11.55143,0.34624 -12.97674,31.73841 -1.73579,38.22841 2.38061,1.37432 3.65137,3.67196 2.82369,5.10553 -1.81693,3.14701 -20.10577,13.09294 -41.63058,22.63983 -8.690597,3.85463 -21.744923,11.34899 -29.009839,16.65408 -12.825892,9.36569 -21.722484,9.58257 -20.946505,0.51051 1.407723,-16.45437 -0.521477,-34.84305 -3.857491,-36.76911 -2.381984,-1.37523 -6.311247,1.02462 -9.898664,6.04494 -4.787091,6.69901 -5.076734,11.93895 -1.483681,26.82463 2.455631,10.17461 3.976235,19.34627 3.378658,20.3813 -0.597834,1.03549 -10.8777,8.49827 -22.844343,16.58484 -23.8365139,16.10768 -32.162492,28.21908 -23.0260903,33.49399 3.8672095,2.23273 7.4578606,0.94407 12.1656553,-4.36618 6.873657,-7.75303 37.703472,-30.10305 45.446217,-32.94597 9.251092,-3.39652 35.575465,-17.33616 36.917554,-19.54893 0.771924,-1.28342 5.939119,-4.18159 11.472089,-6.44662 5.5331,-2.26496 16.67537,-7.52799 24.76066,-11.69557 20.61635,-10.62642 94.76968,-30.5718 114.12793,-30.69756 8.87347,-0.0575 16.80791,-1.27269 17.63217,-2.70036 3.20282,-5.54749 48.74736,-5.02782 58.61397,0.66867 l 9.77338,5.64268 -13.07456,17.65764 c -7.19114,9.71178 -16.65536,23.15233 -21.03158,29.86812 -32.06583,49.20542 -78.31231,118.04011 -80.89345,120.40491 -1.71879,1.5749 -5.47678,1.50578 -8.35052,-0.15339 -2.87351,-1.65901 -15.35396,-2.12845 -27.7336,-1.04279 -12.37968,1.0855 -28.63295,1.83159 -36.11842,1.65788 -7.48524,-0.17358 -18.10088,-0.0154 -23.59002,0.35177 -5.48904,0.36723 -19.476724,1.31001 -31.083714,2.09494 -11.606876,0.78502 -29.703513,5.06434 -40.215053,9.50944 -10.511076,4.44537 -20.456391,8.12262 -22.100305,8.17185 -1.643876,0.0494 -3.038025,-7.48438 -3.098079,-16.74134 -0.106061,-16.31543 -6.748379,-28.14509 -15.6533997,-27.87797 -6.3465056,0.19023 -8.791279,7.23377 -5.1917164,14.95628 4.0288615,8.64323 6.1972784,34.67807 3.3053698,39.68701 -1.1566856,2.00345 -5.9406554,4.46844 -10.6310561,5.47784 -4.6905396,1.00934 -9.3479606,3.20208 -10.3497816,4.87267 -0.997056,1.67335 -8.891813,6.46744 -17.532917,10.65992 -10.591553,5.13892 -16.99565,10.47386 -19.653828,16.37231 -6.944587,15.41114 0.742896,15.08159 26.163048,-1.1216 13.636304,-8.69192 30.1942107,-16.7634 36.79485,-17.93668 6.600803,-1.17333 12.77422,-3.47121 13.718369,-5.10653 0.944216,-1.63543 8.676561,-5.26167 17.183065,-8.05832 8.506987,-2.79637 18.585852,-7.05911 22.398359,-9.4725 3.812053,-2.4135 13.783407,-3.98333 22.157887,-3.48861 8.37466,0.49469 20.028752,-0.14154 25.897902,-1.4138 5.86922,-1.27238 16.63098,-0.9933 23.91485,0.61988 7.28392,1.6134 15.28178,1.77816 17.77252,0.36616 6.8311,-3.87164 33.6727,-4.19503 40.10206,-0.48303 3.11124,1.79628 4.75617,4.84654 3.65538,6.7784 -2.30442,4.04497 -41.05593,54.81631 -61.36613,80.40202 -7.56705,9.53286 -17.32682,23.22285 -21.6882,30.42254 -13.63721,22.51045 -17.651969,24.81124 -35.629237,20.41426 -18.172113,-4.44476 -20.367863,-4.39032 -51.204905,1.26742 -12.147924,2.22881 -28.4648941,5.22162 -36.260369,6.6508 -7.795525,1.42899 -20.570436,6.236499 -28.389069,10.682957 -7.818456,4.446695 -15.330558,7.441053 -16.693077,6.6544 -1.362745,-0.786787 -2.135701,-8.020757 -1.717539,-16.075237 0.897445,-17.29272 -7.837569,-36.0975 -16.111544,-34.68484 -9.065211,1.54801 -9.584945,6.76315 -3.27019,32.81055 3.340626,13.779507 5.294146,26.404208 4.34122,28.054724 -0.952938,1.650526 -7.125415,6.719711 -13.716791,11.264567 -19.814679,13.663289 -40.426999,34.969126 -38.996319,40.308451 1.84013,6.867847 10.91109,4.38145 21.89929,-6.00283 5.078545,-4.79932 13.300265,-12.573655 18.270275,-17.27667 22.386503,-21.18157 83.77605001,-42.792214 129.278226,-45.508798 13.382228,-0.798901 16.776013,0.187068 21.782074,6.328686 5.641178,6.92111 5.460997,7.867769 -3.707601,19.453958 -5.300544,6.698322 -12.514329,14.553096 -16.031168,17.454976 -3.516659,2.901804 -13.018283,15.060507 -21.114695,27.019335 C 17.489739,-10.42019 4.3217658,7.3110642 -3.6758508,17.02375 -18.045861,34.476452 -18.378748,34.656814 -32.026112,32.39705 c -13.494119,-2.234274 -22.792705,-1.856813 -48.02193,1.94967 l -12.429556,1.875341 -8.030292,-13.179682 c -9.38777,-15.4077039 -18.41052,-19.7347357 -24.63068,-11.812264 -3.63582,4.629889 -2.72403,7.299907 5.20168,15.245283 12.29937,12.329753 9.66456,16.950189 -15.86999,27.83074 -22.03581,9.389892 -28.13137,14.503032 -34.86361,29.246137 -4.56447,9.997024 -1.8753,14.698353 5.4724,9.565969 2.13575,-1.492812 10.33717,-7.390205 18.22402,-13.105977 19.468,-14.108936 44.27726,-24.590048 62.647898,-26.466838 26.23058,-2.67949 44.389439,-3.224847 47.504056,-1.42662 3.570362,2.061348 -13.067537,25.051821 -32.326868,44.669697 -7.026539,7.157544 -15.481163,17.700104 -18.788144,23.427954 -6.963745,12.06157 -17.048522,15.96105 -23.864032,9.22731 -3.52311,-3.48128 -12.57822,-2.74669 -34.99209,2.83831 -26.88378,6.6988 -30.69114,6.80659 -34.31563,0.97119 -7.16604,-11.5375 -17.56866,-6.25373 -12.23293,6.21351 2.6493,6.1907 2.30736,6.78298 -7.18151,12.43873 -12.43084,7.40887 -21.04255,21.34223 -15.2555,24.68339 2.28111,1.31699 6.9684,-0.59798 10.41579,-4.25567 14.29751,-15.16924 71.01173,-30.88626 84.12717,-23.31407 5.16053,2.97944 1.00913,9.54067 -19.90137,31.45417 -23.9185,25.06609 -32.61709,34.71411 -40.96337,45.43389 -8.9093,11.44322 -9.19804,11.52215 -22.34654,6.10294 -15.44558,-6.36591 -32.95548,-1.59026 -40.24066,10.97576 -5.95367,10.25846 1.89015,14.73416 11.41804,6.51488 12.16346,-10.49206 30.17748,-7.44478 23.57658,3.98831 -1.36444,2.36331 -13.29427,11.3842 -26.51087,20.04652 -13.21652,8.66218 -25.73876,18.70889 -27.82711,22.32605 -2.08838,3.61715 -8.78106,10.84334 -14.87268,16.05824 -15.89864,13.6104 -21.7873,25.00582 -15.91799,30.80474 6.22664,6.15212 5.7344,6.6731 -11.99546,12.69191 -8.30218,2.81834 -19.54501,7.87379 -24.984,11.23446 -5.43882,3.36062 -11.91533,4.94038 -14.39205,3.51044 -3.77587,-2.17999 -2.95086,-4.56763 5.10971,-14.78771 12.62044,-16.00255 14.44199,-17.93076 26.82248,-28.39176 7.60784,-6.42848 15.82394,-18.66459 29.81407,-44.40235 26.34599,-48.46901 61.98128,-122.52924 68.38587,-142.12514 2.89824,-8.86834 6.8756,-16.98813 8.83836,-18.04434 1.96257,-1.05615 6.54239,-13.31295 10.17658,-27.23772 3.63443,-13.924629 9.45626,-32.915451 12.93772,-42.201487 3.48153,-9.286148 9.15696,-24.595293 12.61219,-34.020324 3.45524,-9.4248328 9.3726,-22.4889527 13.14981,-29.031285 17.59487,-30.475202 36.25009,-86.661389 33.77122,-101.713614 -1.05636,-6.41549 -0.88877,-13.45206 0.37247,-15.63658 1.2613,-2.18465 11.01091,-23.73358 21.66619,-47.88655 17.53862,-39.75644 21.681264,-53.60854 21.194228,-70.87002 -0.08838,-3.13184 1.620954,-12.2275 3.79894,-20.21243 2.177936,-7.98481 4.447771,-19.27752 5.04412,-25.09483 1.130292,-11.02564 4.584698,-20.85679 19.634718,-55.88085 4.949907,-11.51904 10.154138,-27.83934 11.564616,-36.26724 1.410895,-8.42781 4.318884,-22.05721 6.462309,-30.28761 2.143123,-8.23044 3.164929,-20.05022 2.270341,-26.26629 -0.894474,-6.21603 -0.956769,-12.46105 -0.138545,-13.87822 0.818211,-1.41718 2.145474,-9.39944 2.94964,-17.7383 0.804091,-8.33873 4.488121,-23.34393 8.186308,-33.34494 3.698276,-10.00102 8.758374,-23.73099 11.244509,-30.51097 2.4858941,-6.78023 4.4492248,-15.72927 4.3623554,-19.887 -0.1553823,-7.42239 3.8713688,-20.28166 21.7876216,-69.57506 4.936026,-13.58106 10.037435,-30.8007 11.336701,-38.26594 5.830737,-33.50498 54.683637,-126.65285 80.426328,-153.3498 6.99716,-7.25615 21.35788,-25.01155 31.91245,-39.4565 27.30253,-37.36577 45.23916,-53.93553 58.2505,-53.81192 8.25307,0.0786 10.94831,-1.53053 12.98618,-7.75221 1.41421,-4.31803 9.08213,-15.01488 17.03983,-23.77049 1038.95262,-546.77329 244.22429,-144.80239 14.15108,64.57991 z m 278.63525,89.15038 c -1.86134,1.0014 -14.78691,18.41799 -28.72365,38.70357 -27.546,40.09432 -33.21205,54.57491 -22.77119,58.1925 4.69523,1.62727 7.99779,-2.23024 24.22617,-28.29526 39.2341,-63.01529 39.20718,-62.96359 34.7682,-66.83387 -2.26321,-1.97363 -5.63802,-2.769 -7.49953,-1.76694 z m -46.72986,12.61225 c -7.46859,2.76432 -31.44003,29.124 -40.52869,44.56657 -6.93014,11.76216 -10.47458,28.67019 -6.50254,30.96352 2.89474,1.67126 11.96095,-9.42144 22.88868,-28.00414 5.53467,-9.42522 14.40434,-19.32765 22.74344,-25.41742 7.51595,-5.48807 14.01336,-12.17552 14.43897,-14.86097 1.00939,-6.36749 -5.55681,-10.01707 -13.04016,-7.24705 z m -73.51605,161.96084 c -2.28335,1.22871 -16.2895,21.28915 -31.12511,44.5791 -21.74099,34.13083 -26.68227,43.56894 -25.47452,48.652 0.99879,4.20185 2.97266,5.91217 5.91389,5.12413 4.87177,-1.3053 60.31011,-83.6591 61.53968,-91.41736 0.94917,-5.98713 -5.25273,-9.95134 -10.85373,-6.93824 z m -137.32529,223.53963 c -2.89023,1.06959 -13.30236,13.98903 -23.13823,28.70975 -14.9264,22.33944 -17.51093,27.77226 -15.62839,32.85811 1.24018,3.35103 3.42901,5.42892 4.86376,4.61703 1.43456,-0.81183 12.06225,-15.76277 23.617,-33.22446 20.63847,-31.18908 22.61603,-37.52337 10.28586,-32.96043 z m 620.62703,-225.17322 c -1.14189,6.69377 -8.33921,27.74476 -15.99361,46.78027 -7.65462,19.0355 -16.44046,41.55523 -19.52443,50.04402 -3.0839,8.4889 -15.76722,32.5004 -28.18532,53.35912 -18.90152,31.74908 -23.88515,38.34511 -30.60357,40.50631 -6.74126,2.16832 -11.25462,8.17448 -28.20803,37.53863 -11.1004,19.22647 -34.28668,53.59954 -51.52543,76.38456 -17.23843,22.78506 -34.39116,46.67337 -38.11729,53.08513 -9.72334,16.73411 -33.78984,40.61393 -50.74722,50.3561 -8.02349,4.60987 -18.76469,13.53228 -23.86914,19.82764 -32.73472,40.37116 -91.68029,84.94959 -147.90237,111.853041 -35.99444,17.223842 -77.57702,43.460057 -87.83753,55.420391 -4.18952,4.883832 -11.93081,10.6059308 -17.20253,12.7157957 -5.27198,2.1097229 -10.79599,5.9334925 -12.276,8.496928 -1.48006,2.5635397 -9.08636,8.2979438 -16.90255,12.7433413 -7.81616,4.445397 -24.04659,15.694629 -36.06767,24.998244 -22.01436,17.03866 -34.17623,23.332847 -59.98398,31.044028 -7.72673,2.308719 -19.96155,9.452326 -27.18856,15.87454 -7.22679,6.422348 -14.67252,11.722874 -16.54594,11.779054 -1.87336,0.05608 -7.89038,4.584117 -13.37094,10.062067 -5.48058,5.47793 -23.49768,18.11056 -40.03797,28.07263 -16.54029,9.96209 -32.837322,20.71812 -36.215175,23.90253 -13.462685,12.69115 -50.063675,30.8441 -55.667428,27.60876 -3.368627,-1.94487 1.693482,-21.02513 12.45725,-46.95473 16.949156,-40.829812 15.876193,-39.3317 24.792591,-34.60946 4.353346,2.306 9.119787,3.86915 10.591173,3.4753 5.467371,-1.46508 4.100417,-11.276594 -2.430814,-17.447784 -9.782951,-9.243486 -11.905669,-18.201979 -7.369243,-31.101567 5.412384,-15.391071 6.940575,-78.049789 2.094017,-85.852863 -2.804969,-4.515758 -5.26868,-5.903343 -8.80077,-4.957355 -5.209782,1.395854 -6.376473,10.856539 -5.747978,46.4466 0.62124,34.98608 -9.496926,74.882715 -29.811194,117.546219 -10.76602,22.61025 -14.997719,39.27765 -13.179899,51.91004 0.81811,5.68558 0.68739,11.72342 -0.290539,13.41724 -3.1272335,5.41651 -70.356915,49.95359 -102.662444,68.01015 -17.171607,9.59765 -43.603827,25.02302 -58.738467,34.27855 -23.12644,14.14296 -32.04828,17.46863 -55.91056,20.83967 -15.61636,2.20612 -38.25305,7.58912 -50.30407,11.96186 -12.05116,4.37268 -22.29753,6.48104 -22.77017,4.68526 -1.3485,-5.12642 28.20418,-32.34415 52.10368,-47.98717 11.9452,-7.81835 23.82622,-17.763 26.40258,-22.09911 2.57975,-4.33427 8.30426,-9.99503 12.72923,-12.57488 4.4247,-2.58001 11.58878,-10.72617 15.92033,-18.10236 10.93554,-18.62189 12.68665,-11.57868 2.69346,10.83183 -4.54293,10.1876 -7.73037,20.49839 -7.08338,22.91308 1.75039,6.53245 10.42965,3.12586 15.77401,-6.19117 7.10824,-12.3922 15.99434,-39.65694 14.93896,-45.83768 -0.68339,-4.00177 2.35652,-9.52767 10.58589,-19.24414 6.34982,-7.49641 18.61968,-22.98873 27.26667,-34.42722 8.646999,-11.43849 19.166959,-23.48785 23.377463,-26.77644 4.210934,-3.28852 12.588892,-12.73504 18.617643,-20.99246 7.284427,-9.97631 12.218331,-14.28782 14.706778,-12.85112 6.319201,3.6484 -3.566291,58.41284 -13.796781,76.432 -14.411525,25.3824 -16.813576,49.66476 -5.556359,56.16413 5.405023,3.12057 10.001754,-1.4048 8.487519,-8.35644 -0.963506,-4.42461 6.373291,-31.32189 10.487771,-38.44837 1.406875,-2.4368 6.400457,-3.80935 11.096698,-3.0501 11.911231,1.9256 14.736434,-5.36696 6.343674,-16.37459 -5.877665,-7.70883 -6.471878,-12.94117 -3.492899,-30.75083 1.9741,-11.80382 2.316203,-27.8438 0.75962,-35.64459 C -38.897155,91.708921 -38.870482,91.634838 -22.079628,67.008719 -12.82708,53.438544 0.11084904,37.032528 6.6709858,30.550638 13.231402,24.069079 26.323274,7.2615715 35.764361,-6.7992311 45.205684,-20.85991 58.324999,-37.536407 64.919524,-43.857742 c 6.59444,-6.321212 16.241814,-18.857811 21.438638,-27.858986 5.196899,-9.00128 15.779218,-21.7983 23.515988,-28.438072 7.73725,-6.6395 13.80448,-13.05338 13.4831,-14.25276 -0.78717,-2.93733 34.97644,-49.75569 40.98707,-53.65713 4.72519,-3.06667 34.47006,-44.95802 48.60853,-68.45788 4.04713,-6.72562 8.99794,-11.89941 11.00302,-11.49651 4.05905,0.81579 5.33796,27.8744 3.66365,77.51835 -1.04883,31.10111 -2.05793,39.90857 -9.83206,85.813155 -1.74253,10.290154 -8.3651,29.992542 -14.71684,43.783024 -6.35179,13.790607 -16.26323,36.615777 -22.02549,50.722757 -11.20714,27.436153 -22.0152,43.478036 -44.07453,65.41701 -13.55379,13.479499 -13.77498,13.944142 -11.16442,23.428413 2.50672,9.105761 3.04495,9.511551 9.13509,6.883901 6.09797,-2.63104 41.57098,-46.629226 47.76883,-59.248935 1.57202,-3.20002 5.84851,-10.813534 9.50341,-16.918797 3.65022,-6.107972 9.52527,-20.8601184 13.04443,-32.7891372 3.51954,-11.9286398 7.81008,-22.0546858 9.53481,-22.5021278 1.724,-0.447215 7.74283,1.84645 13.37363,5.097403 8.22177,4.746833 10.84729,4.854164 13.3366,0.542562 2.01793,-3.495147 0.71356,-8.006046 -3.73831,-12.929026 -10.47294,-11.580979 -10.95677,-15.314772 -4.4575,-34.411616 14.24694,-41.864296 18.38543,-184.213996 5.57056,-191.612656 -2.67245,-1.54294 -4.89937,-4.16289 -4.94898,-5.82249 -0.0495,-1.65942 16.95497,-28.39102 37.78818,-59.40346 62.02697,-92.33333 79.50314,-116.99069 83.71894,-118.12012 4.97827,-1.33403 6.35328,4.04729 13.56991,53.09033 9.08235,61.72895 -1.31426,164.95184 -22.7871,226.24029 -14.55163,41.53312 -59.12717,134.822238 -71.44535,149.521879 -6.15398,7.3440285 -12.45226,16.5071702 -13.99602,20.3627762 -3.40746,8.5104168 1.23191,15.1150298 9.61262,13.6839858 4.97938,-0.850146 11.0816,-9.57422 31.81187,-45.480106 14.82783,-25.682541 27.29208,-50.542793 29.54089,-58.920076 2.13948,-7.970487 5.41258,-14.899677 7.27333,-15.398279 1.86066,-0.498649 6.64944,4.73217 10.64099,11.625053 8.56796,14.793398 13.10416,17.953966 21.37479,14.89298 8.03846,-2.974939 5.96861,-9.734727 -8.16526,-26.669561 -13.50676,-16.183192 -15.30398,-23.500972 -8.61662,-35.083812 7.39249,-12.80418 22.43144,-63.58518 21.93208,-74.05603 -0.47289,-9.91584 3.31742,-17.82105 7.41194,-15.45708 1.56869,0.90569 7.18767,8.47969 12.48693,16.8311 9.79417,15.436 20.6516,22.79051 26.25506,17.78471 4.00492,-3.57784 -5.87638,-21.75801 -19.97156,-36.74458 -13.00606,-13.82851 -21.81715,-31.52082 -18.53184,-37.21117 1.27667,-2.21123 2.51591,-10.17876 2.75373,-17.70554 0.23791,-7.52672 1.21452,-15.0396 2.17039,-16.69524 2.6749,-4.63304 4.38731,-51.13394 2.67355,-72.60488 -1.41496,-17.72928 -8.83459,-57.97745 -14.4051,-78.14165 -3.23563,-11.71235 7.69078,-35.49099 34.91678,-75.9873 12.28158,-18.26782 22.28832,-34.60272 22.23776,-36.2999 -0.0511,-1.69704 6.16148,-9.47895 13.80537,-17.29295 7.64382,-7.81401 15.74038,-17.99642 17.99254,-22.62731 10.99193,-22.60506 25.61574,-42.98443 30.31036,-42.24038 8.40487,1.33222 50.26459,172.14503 51.09263,208.48813 0.15062,6.60362 1.34634,19.35188 2.65757,28.3299 4.10158,28.08399 -0.5873,54.71148 -22.08674,125.4265 -9.23798,30.38539 -16.60134,48.33421 -27.86891,67.93115 -30.37829,52.83112 -54.43847,100.33432 -53.1878,105.0015 0.90363,3.37312 3.48781,4.14536 8.967,2.67937 8.4117,-2.25067 9.36822,-3.78783 49.87066,-80.14618 12.5101,-23.58496 24.56485,-48.13324 26.78796,-54.55157 4.65107,-13.42821 6.30391,-13.27789 12.9044,1.17425 6.05496,13.25765 16.81249,18.02734 22.96133,10.18041 2.99899,-3.82711 3.12613,-7.3422 0.37263,-10.3471 -2.29314,-2.50341 -8.65677,-10.67745 -14.14089,-18.16555 -9.11504,-12.44559 -9.60618,-15.02939 -5.71878,-30.08229 2.3391,-9.05695 6.47139,-22.17316 9.18346,-29.14671 2.71214,-6.97367 4.51197,-16.01696 4.00035,-20.09615 -0.512,-4.0793 0.62857,-10.21002 2.53433,-13.62398 3.18869,-5.71084 4.01455,-5.57008 10.34543,1.76904 4.83434,5.60445 8.26913,7.6044 11.5479,6.72907 7.8821,-2.11191 6.73731,-10.86242 -3.20288,-24.47472 -10.92193,-14.95661 -14.81216,-28.83132 -16.26654,-58.01547 -0.56811,-11.39515 -3.36724,-31.60763 -6.22079,-44.91705 -7.19148,-33.54265 -9.49871,-46.76218 -10.58482,-60.64536 -0.51459,-6.57911 -4.07637,-23.75944 -7.91462,-38.17796 -3.83858,-14.4189 -7.88685,-30.94127 -8.99613,-36.71629 -1.10917,-5.77502 -6.29881,-20.53409 -11.53263,-32.79822 -5.23353,-12.26387 -9.23334,-25.49605 -8.8889,-29.40488 33.50455,-50.60946 92.01911,-206.29407 109.04779,-54.51285 0.0907,1.62018 4.2043,13.42317 9.13992,26.22821 4.9358,12.8049 11.61306,34.71118 14.83846,48.68057 3.22534,13.96926 7.94129,29.29515 10.47961,34.05751 12.88224,24.16862 28.29757,144.54313 20.2872,158.41746 -1.26211,2.186 -1.67284,6.29634 -0.9126,9.13385 1.35688,5.06367 0.47768,12.25371 -6.07045,49.64186 -3.89967,22.26568 -29.48,101.39966 -36.97323,114.37832 -6.63239,11.48764 -5.60725,22.86973 2.30113,25.5476 4.12596,1.39771 7.22464,-0.19729 9.77696,-5.03066 8.50251,-16.10209 31.86366,-86.04282 36.04632,-107.91851 2.4758,-12.9476 5.90171,-27.15205 7.61326,-31.56535 1.71203,-4.413 2.82144,-19.34614 2.46649,-33.18389 -0.35502,-13.83769 0.17127,-26.57396 1.16937,-28.30274 1.23516,-2.13935 6.4887,0.23942 16.45031,7.44843 11.35802,8.21966 15.5079,9.8853 18.529,7.43832 6.33211,-5.12894 2.51478,-15.0416 -8.27958,-21.49974 -16.44681,-9.83921 -25.87961,-22.903 -25.17456,-34.86236 0.35108,-5.95882 -0.20693,-17.36236 -1.23999,-25.34107 -1.03321,-7.97885 -1.4274,-15.28873 -0.87594,-16.24388 -127.45181,-487.08951 63.62029,-367.92633 103.77478,-76.9168 2.5576,19.40968 -1.38022,57.69926 -8.60119,83.63458 -6.75967,24.27733 -5.58786,37.44744 3.4588,38.8813 6.95999,1.10318 10.51318,-5.66289 12.16872,-23.17326 0.74908,-7.91805 3.07147,-20.9711 5.16118,-29.00695 5.52117,-21.23061 6.94927,-40.83067 4.86798,-66.8139 -240.59394,-369.0058 297.61253,-959.08758 71.26366,2.77355 z m -201.4622,-81.03648 c 1.03422,1.92206 4.67054,3.01853 8.08109,2.43553 4.66592,-0.79676 8.807,-6.03795 16.72825,-21.17233 18.86125,-50.53513 -17.99149,-3.09059 -24.80934,18.7368 z m -87.47881,-38.4706 c -12.72893,7.09967 -60.18848,78.07623 -59.84606,89.50062 0.065,2.15275 2.5636,5.32626 5.55366,7.05252 4.91362,2.83688 6.64001,1.05236 17.96419,-18.56894 6.89026,-11.93938 19.95703,-31.23149 29.03659,-42.87204 13.10304,-16.79845 16.2854,-22.47209 15.42671,-27.50268 -1.17729,-6.89374 -4.25519,-9.77298 -8.13486,-7.60935 z m 10.0762,59.6667 c -6.30769,2.94016 -11.89893,10.47632 -24.83198,33.47035 -19.23304,34.19454 -24.31874,47.67763 -19.11525,50.68188 3.38289,1.95316 20.49219,-22.15997 51.51136,-72.59701 6.9948,-11.37534 3.50124,-16.7131 -7.56413,-11.55522 z m -111.57226,93.13667 c -2.69326,0.99686 -12.40151,13.3563 -21.57385,27.46588 -9.17231,14.10946 -26.06002,39.90092 -37.5281,57.3146 -18.0402,27.39383 -20.77396,33.02184 -20.28068,41.75433 0.84422,14.94373 9.448,12.14644 17.6674,-5.7443 3.54248,-7.70946 20.9414,-34.5371 38.66615,-59.61588 17.72414,-25.07915 32.58693,-47.8761 33.02836,-50.66001 1.12523,-7.10056 -4.15929,-12.66877 -9.97928,-10.51462 z m -5.52742,79.77959 c -8.92105,7.27158 -34.61058,54.40414 -30.83939,56.58142 6.34952,3.66596 45.92307,-53.65302 40.98153,-59.35864 -1.53254,-1.77011 -6.09686,-0.52018 -10.14214,2.77722 z m -147.97295,110.63049 c -1.99458,1.07404 -8.53967,9.47835 -14.54295,18.67716 -6.00293,9.19901 -22.97667,34.96789 -37.7183,57.26447 -14.74194,22.29659 -27.13921,42.52831 -27.54963,44.95949 -1.19659,7.08671 8.55021,8.35562 15.06785,1.96158 3.28787,-3.22567 13.15105,-17.99766 21.91742,-32.82705 8.76623,-14.82968 22.92396,-34.75299 31.46093,-44.27439 8.53685,-9.52147 15.95311,-19.21303 16.4804,-21.53697 0.52742,-2.32372 2.20052,-8.12933 3.71773,-12.90141 2.77498,-8.72591 -2.08419,-14.95436 -8.83345,-11.32288 z m -158.33895,246.73521 c -3.20567,1.99108 -14.60299,15.34533 -25.32704,29.6763 -10.72423,14.33073 -22.10827,27.677 -25.29816,29.658146 -6.84734,4.25312 -5.97911,12.248832 1.45805,13.427676 6.26432,0.992818 21.32451,-14.198274 41.73016,-42.092722 12.89295,-17.62459 16.00338,-23.57475 14.79574,-28.30252 -1.29067,-5.05015 -2.44181,-5.42037 -7.35839,-2.36666 z m 723.77931,-346.2974 c -11.51526,-24.02718 -16.07654,-39.90118 -12.99757,-45.23402 4.73149,-8.19513 9.84596,-2.73778 12.22994,13.04951 1.52542,10.10354 4.42194,15.62282 9.84018,18.75096 32.0757,96.95439 49.68349,40.1976 9.6352,-18.80115 -19.10359,-27.74993 -21.8552,-36.09182 -16.53253,-50.11733 4.24869,-11.19509 4.66112,-11.45094 8.49824,-5.27293 5.49478,8.84702 12.33907,12.3602 15.02332,7.71099 -11.63044,-127.54472 49.50569,-87.97954 38.39405,11.54144 21.52954,22.63375 -51.3527,96.89532 -64.09007,68.37227 z"
         id="path3468"
         inkscape:connector-curvature="0"
         sodipodi:nodetypes="csccssscsscsscssscssssscccscssssscccccssscccscsscssscccccccccssscsscsccssscccssscccssssssssssccsccscssccsssccssssscsccsssscsssssssscsssscsccssscccccssscscssscssccccssccscsssccssscscccssscsccssccccscccscsscscssccssscscssccscsscsscsssscscsccscccscscsscssccccsscccsccscccccscsccssscccscssscccscssccscscssccssccsscscssscssscsccssssssssscsccccssscsccssscsssccscsssccccsscscccsssccssscscscsscsssccsssssscssscsssscccccssscscsscscccccscccscccscccscscsssccsssscscccccscsccccccccsscccccsccscsscscssscscscccscsccsccsscscscccssccc" />
    </clipPath>
  </defs>
  <sodipodi:namedview
     id="base"
     pagecolor="#ffffff"
     bordercolor="#666666"
     borderopacity="1.0"
     inkscape:pageopacity="0.0"
     inkscape:pageshadow="2"
     inkscape:zoom="0.49497475"
     inkscape:cx="366.36412"
     inkscape:cy="183.22857"
     inkscape:document-units="px"
     inkscape:current-layer="layer1"
     showgrid="false"
     inkscape:window-width="1366"
     inkscape:window-height="744"
     inkscape:window-x="0"
     inkscape:window-y="24"
     inkscape:window-maximized="1"
     fit-margin-top="0"
     fit-margin-left="0"
     fit-margin-right="0"
     fit-margin-bottom="0" />
  <metadata
     id="metadata7">
    <rdf:RDF>
      <cc:Work
         rdf:about="">
        <dc:format>image/svg+xml</dc:format>
        <dc:type
           rdf:resource="http://purl.org/dc/dcmitype/StillImage" />
        <dc:title></dc:title>
      </cc:Work>
    </rdf:RDF>
  </metadata>
  <g
     inkscape:label="Layer 1"
     inkscape:groupmode="layer"
     id="layer1"
     transform="translate(-11.632637,-173.95544)">
    <g
       id="g7257"
       transform="translate(-1.0101472,-855.59926)">
      <path
         d="m 91.185281,1734.006 c -43.150629,0 -78.542489,-34.9676 -78.542489,-77.6009 l 0,-549.2496 c 0,-42.6333 35.391861,-77.6008 78.542489,-77.6008 l 563.744229,0 c 43.15062,0 78.54249,34.9675 78.54249,77.6008 l 0,549.2496 c 0,42.6333 -35.39187,77.6009 -78.54249,77.6009 l -563.744229,0 z"
         id="path3786"
         style="opacity:0.07999998;fill:url(#linearGradient7263);fill-opacity:1;fill-rule:nonzero;stroke:none;display:inline"
         inkscape:connector-curvature="0" />
      <path
         d="m 91.185281,1726.27 c -38.926797,0 -70.712708,-31.4048 -70.712708,-69.8649 l 0,-549.2496 c 0,-38.4601 31.785912,-69.8649 70.712708,-69.8649 l 563.744229,0 c 38.92679,0 70.7127,31.4048 70.7127,69.8649 l 0,549.2496 c 0,38.4601 -31.78591,69.8649 -70.7127,69.8649 l -563.744229,0 z"
         id="path3778"
         style="opacity:0.1;fill:url(#linearGradient7265);fill-opacity:1;fill-rule:nonzero;stroke:none;display:inline"
         inkscape:connector-curvature="0" />
      <path
         d="m 91.185281,1718.2924 c -34.522547,0 -62.638247,-27.7786 -62.638247,-61.8873 l 0,-549.2496 c 0,-34.1087 28.1157,-61.8873 62.638247,-61.8873 l 563.744229,0 c 34.52254,0 62.63824,27.7786 62.63824,61.8873 l 0,549.2496 c 0,34.1087 -28.1157,61.8873 -62.63824,61.8873 l -563.744229,0 z"
         id="path3770"
         style="opacity:0.2;fill:url(#linearGradient7267);fill-opacity:1;fill-rule:nonzero;stroke:none;display:inline"
         inkscape:connector-curvature="0" />
      <rect
         width="673.36115"
         height="657.55237"
         rx="54.808468"
         ry="54.151371"
         x="36.376816"
         y="-1710.5565"
         transform="scale(1,-1)"
         id="rect3723"
         style="opacity:0.3;fill:url(#linearGradient7269);fill-opacity:1;fill-rule:nonzero;stroke:none;display:inline" />
    </g>
    <rect
       style="fill:#f2f1f0;fill-opacity:1;fill-rule:nonzero;stroke:none;display:inline"
       id="rect3716-5"
       transform="scale(1,-1)"
       y="-849.30359"
       x="43.196449"
       ry="46.160358"
       rx="46.978687"
       height="646.245"
       width="657.7016" />
    <rect
       style="fill:#accea5;fill-opacity:1;fill-rule:nonzero;stroke:none;display:inline"
       id="rect3716"
       transform="matrix(1,0,0,-1,7.6054686e-6,-4.3359375e-6)"
       y="-849.30359"
       x="43.196442"
       ry="46.160358"
       rx="46.978687"
       height="646.245"
       width="657.7016"
       clip-path="url(#clipPath3466)" />
    <rect
       style="fill:#aeddaa;fill-opacity:1;fill-rule:nonzero;stroke:none;display:inline;opacity:0"
       id="rect3716-9"
       transform="scale(1,-1)"
       y="-849.30359"
       x="43.196442"
       ry="46.160358"
       rx="46.978687"
       height="646.245"
       width="657.7016"
       clip-path="url(#clipPath4036)" />
    <flowRoot
       xml:space="preserve"
       id="flowRoot5495"
       style="font-size:78.18105316px;font-style:normal;font-variant:normal;font-weight:normal;font-stretch:normal;line-height:125%;letter-spacing:0px;word-spacing:0px;fill:#35363f;fill-opacity:0.94117647;stroke:none;font-family:Ubuntu;-inkscape-font-specification:Ubuntu"
       transform="matrix(3.371374,0,0,3.371374,-864.51516,-816.75572)"><flowRegion
         id="flowRegion5497"><rect
           id="rect5499"
           width="486.89352"
           height="226.27417"
           x="123.23861"
           y="347.2757"
           style="font-size:78.18105316px;font-style:normal;font-variant:normal;font-weight:normal;font-stretch:normal;fill:#35363f;fill-opacity:0.94117647;font-family:Ubuntu;-inkscape-font-specification:Ubuntu" /></flowRegion><flowPara
         id="flowPara5501"
         style="font-size:78.18105316px;font-style:normal;font-variant:normal;font-weight:bold;font-stretch:normal;text-align:center;text-anchor:middle;fill:#35363f;fill-opacity:0.94117647;font-family:femkeklaver;-inkscape-font-specification:femkeklaver Bold">Melia</flowPara></flowRoot>  </g>
</svg>
