<?xml version="1.0" encoding="UTF-8" standalone="no"?>
<!-- Created with Inkscape (http://www.inkscape.org/) -->

<svg
   xmlns:dc="http://purl.org/dc/elements/1.1/"
   xmlns:cc="http://creativecommons.org/ns#"
   xmlns:rdf="http://www.w3.org/1999/02/22-rdf-syntax-ns#"
   xmlns:svg="http://www.w3.org/2000/svg"
   xmlns="http://www.w3.org/2000/svg"
   xmlns:xlink="http://www.w3.org/1999/xlink"
   xmlns:sodipodi="http://sodipodi.sourceforge.net/DTD/sodipodi-0.dtd"
   xmlns:inkscape="http://www.inkscape.org/namespaces/inkscape"
   width="744.09448819"
   height="1052.3622047"
   id="svg2"
   version="1.1"
   inkscape:version="0.48.1 r9760"
   sodipodi:docname="New document 1">
  <defs
     id="defs4">
    <inkscape:perspective
       sodipodi:type="inkscape:persp3d"
       inkscape:vp_x="0 : 526.18109 : 1"
       inkscape:vp_y="0 : 1000 : 0"
       inkscape:vp_z="744.09448 : 526.18109 : 1"
       inkscape:persp3d-origin="372.04724 : 350.78739 : 1"
       id="perspective5457" />
    <linearGradient
       id="linearGradient3755">
      <stop
         style="stop-color:#000058;stop-opacity:0.61832058;"
         offset="0"
         id="stop3757" />
      <stop
         style="stop-color:#000027;stop-opacity:0.67175573;"
         offset="1"
         id="stop3759" />
    </linearGradient>
    <linearGradient
       x1="36.357143"
       y1="6"
       x2="36.357143"
       y2="63.893143"
       id="linearGradient3188"
       xlink:href="#linearGradient3737"
       gradientUnits="userSpaceOnUse" />
    <linearGradient
       id="linearGradient3737">
      <stop
         id="stop3739"
         style="stop-color:#f2f1f0;stop-opacity:1;"
         offset="0" />
      <stop
         id="stop3741"
         style="stop-color:#f2f1f0;stop-opacity:1;"
         offset="1" />
    </linearGradient>
    <linearGradient
       gradientTransform="matrix(7.8292184,0,0,7.6785522,-1106.613,331.78786)"
       y2="63.893143"
       x2="36.357143"
       y1="6"
       x1="36.357143"
       gradientUnits="userSpaceOnUse"
       id="linearGradient6957"
       xlink:href="#linearGradient3737"
       inkscape:collect="always" />
    <linearGradient
       x1="32.251034"
       y1="6.1317081"
       x2="32.251034"
       y2="90.238609"
       id="linearGradient3725"
       xlink:href="#ButtonShadow-0"
       gradientUnits="userSpaceOnUse"
       gradientTransform="matrix(1.0238095,0,0,1.0119048,-1.1428571,-98.071429)" />
    <linearGradient
       x1="45.447727"
       y1="92.539597"
       x2="45.447727"
       y2="7.0165396"
       id="ButtonShadow-0"
       gradientUnits="userSpaceOnUse"
       gradientTransform="matrix(1.0058652,0,0,0.994169,100,0)">
      <stop
         id="stop3750-8"
         style="stop-color:#000000;stop-opacity:1"
         offset="0" />
      <stop
         id="stop3752-5"
         style="stop-color:#000000;stop-opacity:0.58823532"
         offset="1" />
    </linearGradient>
    <linearGradient
       x1="32.251034"
       y1="6.1317081"
       x2="32.251034"
       y2="90.238609"
       id="linearGradient3725-2"
       xlink:href="#ButtonShadow-0-9"
       gradientUnits="userSpaceOnUse"
       gradientTransform="matrix(1.0238095,0,0,1.0119048,1088.2889,-749.40053)" />
    <linearGradient
       x1="45.447727"
       y1="92.539597"
       x2="45.447727"
       y2="7.0165396"
       id="ButtonShadow-0-9"
       gradientUnits="userSpaceOnUse"
       gradientTransform="matrix(1.0058652,0,0,0.994169,100,0)">
      <stop
         id="stop3750-8-1"
         style="stop-color:#000000;stop-opacity:1"
         offset="0" />
      <stop
         id="stop3752-5-6"
         style="stop-color:#000000;stop-opacity:0.58823532"
         offset="1" />
    </linearGradient>
    <linearGradient
       x1="32.251034"
       y1="6.1317081"
       x2="32.251034"
       y2="90.238609"
       id="linearGradient3772"
       xlink:href="#ButtonShadow-0-9"
       gradientUnits="userSpaceOnUse"
       gradientTransform="matrix(1.0238095,0,0,-1.0119048,1088.2889,749.40053)" />
    <linearGradient
       x1="45.447727"
       y1="92.539597"
       x2="45.447727"
       y2="7.0165396"
       id="linearGradient7027"
       gradientUnits="userSpaceOnUse"
       gradientTransform="matrix(1.0058652,0,0,0.994169,100,0)">
      <stop
         id="stop7029"
         style="stop-color:#000000;stop-opacity:1"
         offset="0" />
      <stop
         id="stop7031"
         style="stop-color:#000000;stop-opacity:0.58823532"
         offset="1" />
    </linearGradient>
    <linearGradient
       x1="32.251034"
       y1="6.1317081"
       x2="32.251034"
       y2="90.238609"
       id="linearGradient3780"
       xlink:href="#ButtonShadow-0-9"
       gradientUnits="userSpaceOnUse"
       gradientTransform="matrix(1.0238095,0,0,-1.0119048,1088.2889,749.40053)" />
    <linearGradient
       x1="45.447727"
       y1="92.539597"
       x2="45.447727"
       y2="7.0165396"
       id="linearGradient7034"
       gradientUnits="userSpaceOnUse"
       gradientTransform="matrix(1.0058652,0,0,0.994169,100,0)">
      <stop
         id="stop7036"
         style="stop-color:#000000;stop-opacity:1"
         offset="0" />
      <stop
         id="stop7038"
         style="stop-color:#000000;stop-opacity:0.58823532"
         offset="1" />
    </linearGradient>
    <linearGradient
       x1="32.251034"
       y1="6.1317081"
       x2="32.251034"
       y2="90.238609"
       id="linearGradient3026"
       xlink:href="#ButtonShadow-0-9"
       gradientUnits="userSpaceOnUse"
       gradientTransform="matrix(1.0238095,0,0,1.0119048,-1.1428571,-98.071429)" />
    <linearGradient
       x1="45.447727"
       y1="92.539597"
       x2="45.447727"
       y2="7.0165396"
       id="linearGradient7041"
       gradientUnits="userSpaceOnUse"
       gradientTransform="matrix(1.0058652,0,0,0.994169,100,0)">
      <stop
         id="stop7043"
         style="stop-color:#000000;stop-opacity:1"
         offset="0" />
      <stop
         id="stop7045"
         style="stop-color:#000000;stop-opacity:0.58823532"
         offset="1" />
    </linearGradient>
    <linearGradient
       x1="32.251034"
       y1="6.1317081"
       x2="32.251034"
       y2="90.238609"
       id="linearGradient3026-3"
       xlink:href="#ButtonShadow-0-2"
       gradientUnits="userSpaceOnUse"
       gradientTransform="matrix(1.0238095,0,0,1.0119048,-1.1428571,-98.071429)" />
    <linearGradient
       x1="45.447727"
       y1="92.539597"
       x2="45.447727"
       y2="7.0165396"
       id="ButtonShadow-0-2"
       gradientUnits="userSpaceOnUse"
       gradientTransform="matrix(1.0058652,0,0,0.994169,100,0)">
      <stop
         id="stop3750-8-6"
         style="stop-color:#000000;stop-opacity:1"
         offset="0" />
      <stop
         id="stop3752-5-3"
         style="stop-color:#000000;stop-opacity:0.58823532"
         offset="1" />
    </linearGradient>
    <linearGradient
       x1="32.251034"
       y1="6.1317081"
       x2="32.251034"
       y2="90.238609"
       id="linearGradient3780-1"
       xlink:href="#ButtonShadow-0-2"
       gradientUnits="userSpaceOnUse"
       gradientTransform="matrix(1.0238095,0,0,1.0119048,-1.1428571,-98.071429)" />
    <linearGradient
       x1="45.447727"
       y1="92.539597"
       x2="45.447727"
       y2="7.0165396"
       id="linearGradient7129"
       gradientUnits="userSpaceOnUse"
       gradientTransform="matrix(1.0058652,0,0,0.994169,100,0)">
      <stop
         id="stop7131"
         style="stop-color:#000000;stop-opacity:1"
         offset="0" />
      <stop
         id="stop7133"
         style="stop-color:#000000;stop-opacity:0.58823532"
         offset="1" />
    </linearGradient>
    <linearGradient
       x1="32.251034"
       y1="6.1317081"
       x2="32.251034"
       y2="90.238609"
       id="linearGradient3772-4"
       xlink:href="#ButtonShadow-0-2"
       gradientUnits="userSpaceOnUse"
       gradientTransform="matrix(1.0238095,0,0,1.0119048,-1.1428571,-98.071429)" />
    <linearGradient
       x1="45.447727"
       y1="92.539597"
       x2="45.447727"
       y2="7.0165396"
       id="linearGradient7136"
       gradientUnits="userSpaceOnUse"
       gradientTransform="matrix(1.0058652,0,0,0.994169,100,0)">
      <stop
         id="stop7138"
         style="stop-color:#000000;stop-opacity:1"
         offset="0" />
      <stop
         id="stop7140"
         style="stop-color:#000000;stop-opacity:0.58823532"
         offset="1" />
    </linearGradient>
    <linearGradient
       x1="32.251034"
       y1="6.1317081"
       x2="32.251034"
       y2="90.238609"
       id="linearGradient3725-9"
       xlink:href="#ButtonShadow-0-2"
       gradientUnits="userSpaceOnUse"
       gradientTransform="matrix(1.0238095,0,0,1.0119048,-1.1428571,-98.071429)" />
    <linearGradient
       x1="45.447727"
       y1="92.539597"
       x2="45.447727"
       y2="7.0165396"
       id="linearGradient7143"
       gradientUnits="userSpaceOnUse"
       gradientTransform="matrix(1.0058652,0,0,0.994169,100,0)">
      <stop
         id="stop7145"
         style="stop-color:#000000;stop-opacity:1"
         offset="0" />
      <stop
         id="stop7147"
         style="stop-color:#000000;stop-opacity:0.58823532"
         offset="1" />
    </linearGradient>
    <linearGradient
       x1="32.251034"
       y1="6.1317081"
       x2="32.251034"
       y2="90.238609"
       id="linearGradient3721"
       xlink:href="#ButtonShadow-0-2"
       gradientUnits="userSpaceOnUse"
       gradientTransform="translate(0,-97)" />
    <linearGradient
       x1="45.447727"
       y1="92.539597"
       x2="45.447727"
       y2="7.0165396"
       id="linearGradient7150"
       gradientUnits="userSpaceOnUse"
       gradientTransform="matrix(1.0058652,0,0,0.994169,100,0)">
      <stop
         id="stop7152"
         style="stop-color:#000000;stop-opacity:1"
         offset="0" />
      <stop
         id="stop7154"
         style="stop-color:#000000;stop-opacity:0.58823532"
         offset="1" />
    </linearGradient>
    <linearGradient
       inkscape:collect="always"
       xlink:href="#ButtonShadow-0-2"
       id="linearGradient7263"
       gradientUnits="userSpaceOnUse"
       gradientTransform="matrix(8.0162041,0,0,-7.8280045,-11.72041,1757.5245)"
       x1="32.251034"
       y1="6.1317081"
       x2="32.251034"
       y2="90.238609" />
    <linearGradient
       inkscape:collect="always"
       xlink:href="#ButtonShadow-0-2"
       id="linearGradient7265"
       gradientUnits="userSpaceOnUse"
       gradientTransform="matrix(8.0162041,0,0,-7.8280045,-11.72041,1757.5245)"
       x1="32.251034"
       y1="6.1317081"
       x2="32.251034"
       y2="90.238609" />
    <linearGradient
       inkscape:collect="always"
       xlink:href="#ButtonShadow-0-2"
       id="linearGradient7267"
       gradientUnits="userSpaceOnUse"
       gradientTransform="matrix(8.0162041,0,0,-7.8280045,-11.72041,1757.5245)"
       x1="32.251034"
       y1="6.1317081"
       x2="32.251034"
       y2="90.238609" />
    <linearGradient
       inkscape:collect="always"
       xlink:href="#ButtonShadow-0-2"
       id="linearGradient7269"
       gradientUnits="userSpaceOnUse"
       gradientTransform="matrix(8.0162041,0,0,7.8280045,-11.72041,-1757.5245)"
       x1="32.251034"
       y1="6.1317081"
       x2="32.251034"
       y2="90.238609" />
  </defs>
  <sodipodi:namedview
     id="base"
     pagecolor="#ffffff"
     bordercolor="#666666"
     borderopacity="1.0"
     inkscape:pageopacity="0.0"
     inkscape:pageshadow="2"
     inkscape:zoom="0.7"
     inkscape:cx="415.41552"
     inkscape:cy="525.42815"
     inkscape:document-units="px"
     inkscape:current-layer="layer1"
     showgrid="false"
     inkscape:window-width="1366"
     inkscape:window-height="744"
     inkscape:window-x="0"
     inkscape:window-y="24"
     inkscape:window-maximized="1" />
  <metadata
     id="metadata7">
    <rdf:RDF>
      <cc:Work
         rdf:about="">
        <dc:format>image/svg+xml</dc:format>
        <dc:type
           rdf:resource="http://purl.org/dc/dcmitype/StillImage" />
        <dc:title></dc:title>
      </cc:Work>
    </rdf:RDF>
  </metadata>
  <g
     inkscape:label="Layer 1"
     inkscape:groupmode="layer"
     id="layer1">
    <g
       id="g7257"
       transform="translate(-1.0101548,-855.59926)">
      <path
         d="m 91.185281,1734.006 c -43.150629,0 -78.542489,-34.9676 -78.542489,-77.6009 l 0,-549.2496 c 0,-42.6333 35.391861,-77.6008 78.542489,-77.6008 l 563.744229,0 c 43.15062,0 78.54249,34.9675 78.54249,77.6008 l 0,549.2496 c 0,42.6333 -35.39187,77.6009 -78.54249,77.6009 l -563.744229,0 z"
         id="path3786"
         style="opacity:0.07999998;fill:url(#linearGradient7263);fill-opacity:1;fill-rule:nonzero;stroke:none;display:inline"
         inkscape:connector-curvature="0" />
      <path
         d="m 91.185281,1726.27 c -38.926797,0 -70.712708,-31.4048 -70.712708,-69.8649 l 0,-549.2496 c 0,-38.4601 31.785912,-69.8649 70.712708,-69.8649 l 563.744229,0 c 38.92679,0 70.7127,31.4048 70.7127,69.8649 l 0,549.2496 c 0,38.4601 -31.78591,69.8649 -70.7127,69.8649 l -563.744229,0 z"
         id="path3778"
         style="opacity:0.1;fill:url(#linearGradient7265);fill-opacity:1;fill-rule:nonzero;stroke:none;display:inline"
         inkscape:connector-curvature="0" />
      <path
         d="m 91.185281,1718.2924 c -34.522547,0 -62.638247,-27.7786 -62.638247,-61.8873 l 0,-549.2496 c 0,-34.1087 28.1157,-61.8873 62.638247,-61.8873 l 563.744229,0 c 34.52254,0 62.63824,27.7786 62.63824,61.8873 l 0,549.2496 c 0,34.1087 -28.1157,61.8873 -62.63824,61.8873 l -563.744229,0 z"
         id="path3770"
         style="opacity:0.2;fill:url(#linearGradient7267);fill-opacity:1;fill-rule:nonzero;stroke:none;display:inline"
         inkscape:connector-curvature="0" />
      <rect
         width="673.36115"
         height="657.55237"
         rx="54.808468"
         ry="54.151371"
         x="36.376816"
         y="-1710.5565"
         transform="scale(1,-1)"
         id="rect3723"
         style="opacity:0.3;fill:url(#linearGradient7269);fill-opacity:1;fill-rule:nonzero;stroke:none;display:inline" />
    </g>
    <rect
       style="opacity:1;fill:#f2f1f0;fill-opacity:1;fill-rule:nonzero;stroke:none;display:inline"
       id="rect3716"
       transform="scale(1,-1)"
       y="-849.30359"
       x="43.196442"
       ry="46.160358"
       rx="46.978687"
       height="646.245"
       width="657.7016" />
    <flowRoot
       xml:space="preserve"
       id="flowRoot5495"
       style="font-size:78.18105316px;font-style:normal;font-variant:normal;font-weight:normal;font-stretch:normal;line-height:125%;letter-spacing:0px;word-spacing:0px;fill:#35363f;fill-opacity:0.94117647;stroke:none;font-family:Ubuntu;-inkscape-font-specification:Ubuntu"
       transform="matrix(2.8388472,0,0,2.8388472,-669.2957,-604.63163)"><flowRegion
         id="flowRegion5497"><rect
           id="rect5499"
           width="486.89352"
           height="226.27417"
           x="123.23861"
           y="347.2757"
           style="font-size:78.18105316px;font-style:normal;font-variant:normal;font-weight:normal;font-stretch:normal;fill:#35363f;fill-opacity:0.94117647;font-family:Ubuntu;-inkscape-font-specification:Ubuntu" /></flowRegion><flowPara
         id="flowPara5501"
         style="font-size:78.18105316px;font-style:normal;font-variant:normal;font-weight:normal;font-stretch:normal;text-align:center;text-anchor:middle;fill:#35363f;fill-opacity:0.94117647;font-family:femkeklaver;-inkscape-font-specification:femkeklaver">Melia</flowPara></flowRoot>    <path
       d="m -1012.6623,377.85917 c -26.0244,0 -46.9754,20.54781 -46.9754,46.07131 l 0,15.35711 0,522.14154 0,15.35711 c 0,2.57024 0.3234,4.99643 0.7336,7.4386 0.3813,2.26979 0.7595,4.58348 1.468,6.71873 0.078,0.23344 0.1637,0.48836 0.2443,0.71949 0.7743,2.20972 1.8389,4.20369 2.9359,6.23882 1.1322,2.10012 2.4711,4.11282 3.9147,5.99882 1.4436,1.8862 2.9264,3.6357 4.6486,5.2791 3.4444,3.2868 7.3822,6.2544 11.7438,8.3984 2.1808,1.072 4.4899,1.8962 6.8506,2.6395 -2.0059,-0.7696 -3.8106,-1.8142 -5.6273,-2.8795 -0.055,-0.031 -0.1871,0.038 -0.2443,0 -0.2497,-0.1482 -0.4877,-0.3263 -0.7336,-0.4799 -0.9425,-0.5889 -1.8087,-1.2555 -2.6913,-1.9196 -0.8312,-0.6205 -1.6698,-1.2371 -2.4466,-1.9197 -1.393,-1.2395 -2.7203,-2.652 -3.9146,-4.0792 -0.8422,-1.0001 -1.7098,-2.037 -2.4466,-3.1194 -0.1965,-0.2949 -0.3007,-0.6596 -0.4894,-0.9598 -0.5073,-0.7912 -1.0195,-1.5704 -1.4679,-2.3996 -0.7908,-1.495 -1.6103,-3.19197 -2.202,-4.79908 -0.063,-0.16739 -0.1848,-0.31098 -0.2443,-0.47991 -0.2489,-0.70566 -0.2803,-1.43458 -0.4893,-2.15959 -0.2372,-0.81861 -0.5512,-1.55897 -0.7336,-2.39955 -0.5707,-2.62229 -0.9787,-5.36116 -0.9787,-8.15846 l 0,-15.35711 0,-522.14154 0,-15.35711 c 0,-21.3605 17.3665,-38.39276 39.1461,-38.39276 l 15.65849,0 532.38685,0 15.65839,0 c 21.77978,0 39.14608,17.03226 39.14608,38.39276 l 0,15.35711 0,522.14154 0,15.35711 c 0,2.7973 -0.4078,5.53617 -0.97864,8.15846 -0.34602,1.5887 -0.69205,3.05346 -1.22322,4.55914 -0.0621,0.16893 -0.18247,0.31252 -0.24438,0.47991 -0.4908,1.33407 -1.08334,2.82148 -1.71255,4.07928 -0.32575,0.6358 -0.61852,1.305 -0.97867,1.9196 -0.42751,0.7463 -0.99256,1.4463 -1.46798,2.1596 -0.73675,1.0824 -1.60435,2.1193 -2.44666,3.1194 -1.12091,1.3395 -2.37335,2.6645 -3.66998,3.8393 -0.0876,0.078 -0.15648,0.1628 -0.24422,0.2396 -1.08342,0.9641 -2.23205,1.8001 -3.42534,2.6394 -0.80297,0.5614 -1.59951,1.1777 -2.44655,1.6797 -0.0548,0.038 -0.18634,-0.031 -0.24436,0 -1.81665,1.0653 -3.62125,2.1099 -5.62718,2.8795 2.3607,-0.7433 4.66982,-1.5674 6.85052,-2.6395 4.36159,-2.144 8.29945,-5.1115 11.74385,-8.3984 1.72226,-1.6434 3.20502,-3.3929 4.64864,-5.279 1.44362,-1.8861 2.78254,-3.8988 3.91455,-5.99892 1.09707,-2.03511 2.16202,-4.02908 2.93598,-6.23881 0.0812,-0.2365 0.16673,-0.48145 0.24424,-0.71948 0.7086,-2.13526 1.08676,-4.44895 1.46801,-6.71873 0.41025,-2.44218 0.73358,-4.86836 0.73358,-7.4386 l 0,-15.3571 0,-522.14156 0,-15.3571 c 0,-25.52351 -20.95098,-46.07131 -46.9753,-46.07131 l -563.70375,0 z"
       inkscape:connector-curvature="0"
       id="rect3728"
       style="opacity:0.4;fill:url(#linearGradient6957);fill-opacity:1;fill-rule:nonzero;stroke:none" />
  </g>
</svg>
